<svg width="28" height="28" viewBox="0 0 28 28" fill="none" xmlns="http://www.w3.org/2000/svg">
<path d="M4 0H24C25.0609 0 26.0783 0.294999 26.8284 0.820101C27.5786 1.3452 28 2.05739 28 2.8V25.2C28 25.9426 27.5786 26.6548 26.8284 27.1799C26.0783 27.705 25.0609 28 24 28H4C2.93913 28 1.92172 27.705 1.17157 27.1799C0.421427 26.6548 0 25.9426 0 25.2V2.8C0 2.05739 0.421427 1.3452 1.17157 0.820101C1.92172 0.294999 2.93913 0 4 0ZM4 2.8V8.4H24V2.8H4ZM4 11.2V14H8V11.2H4ZM12 11.2V14H16V11.2H12ZM20 11.2V14H24V11.2H20ZM4 16.8V19.6H8V16.8H4ZM12 16.8V19.6H16V16.8H12ZM20 16.8V19.6H24V16.8H20ZM4 22.4V25.2H8V22.4H4ZM12 22.4V25.2H16V22.4H12ZM20 22.4V25.2H24V22.4H20Z" fill="black"/>
</svg>
