<svg width="141" height="23" viewBox="0 0 141 23" fill="none" xmlns="http://www.w3.org/2000/svg">
<path fill-rule="evenodd" clip-rule="evenodd" d="M17.9999 3.5L26 10.1462L25.619 11.4121H24.984V19.5H11.0159V11.4121H10.381L10 10.1462L17.9999 3.5ZM12.2857 10.0055V18.0934H23.7142V10.0055L17.9999 5.25824L12.2857 10.0055Z" fill="#333333"/>
<path d="M42 15.5L46 11.5L42 7.5" stroke="#333333" stroke-width="0.85" stroke-linecap="round" stroke-linejoin="round"/>
<path d="M67.3237 17.21C66.3157 17.21 65.4571 16.9907 64.7477 16.552C64.0384 16.1087 63.4947 15.4927 63.1167 14.704C62.7434 13.9153 62.5567 13.0007 62.5567 11.96C62.5567 10.9193 62.7434 10.0047 63.1167 9.216C63.4947 8.42733 64.0384 7.81367 64.7477 7.375C65.4571 6.93167 66.3157 6.71 67.3237 6.71C68.4857 6.71 69.4471 7.004 70.2077 7.592C70.9731 8.18 71.5051 8.971 71.8037 9.965L70.3197 10.364C70.1237 9.65933 69.7737 9.10633 69.2697 8.705C68.7704 8.30367 68.1217 8.103 67.3237 8.103C66.6097 8.103 66.0147 8.264 65.5387 8.586C65.0627 8.908 64.7034 9.35833 64.4607 9.937C64.2227 10.5157 64.1037 11.19 64.1037 11.96C64.0991 12.73 64.2157 13.4043 64.4537 13.983C64.6964 14.5617 65.0557 15.012 65.5317 15.334C66.0124 15.656 66.6097 15.817 67.3237 15.817C68.1217 15.817 68.7704 15.6163 69.2697 15.215C69.7737 14.809 70.1237 14.256 70.3197 13.556L71.8037 13.955C71.5051 14.949 70.9731 15.74 70.2077 16.328C69.4471 16.916 68.4857 17.21 67.3237 17.21ZM73.3433 17V9.44H74.6453V11.274L74.4633 11.036C74.5566 10.7933 74.6779 10.5717 74.8273 10.371C74.9766 10.1657 75.1493 9.99767 75.3453 9.867C75.5366 9.727 75.7489 9.61967 75.9823 9.545C76.2203 9.46567 76.4629 9.419 76.7103 9.405C76.9576 9.38633 77.1956 9.398 77.4243 9.44V10.812C77.1769 10.7467 76.9016 10.728 76.5983 10.756C76.2996 10.784 76.0243 10.8797 75.7723 11.043C75.5343 11.197 75.3453 11.3837 75.2053 11.603C75.0699 11.8223 74.9719 12.0673 74.9113 12.338C74.8506 12.604 74.8203 12.8863 74.8203 13.185V17H73.3433ZM81.9736 17.21C81.2223 17.21 80.562 17.0467 79.9926 16.72C79.428 16.3887 78.987 15.929 78.6696 15.341C78.357 14.7483 78.2006 14.0623 78.2006 13.283C78.2006 12.457 78.3546 11.7407 78.6626 11.134C78.9753 10.5273 79.4093 10.0583 79.9646 9.727C80.52 9.39567 81.1663 9.23 81.9036 9.23C82.6736 9.23 83.3293 9.40967 83.8706 9.769C84.412 10.1237 84.8156 10.63 85.0816 11.288C85.3523 11.946 85.4596 12.7277 85.4036 13.633H83.9406V13.101C83.9313 12.2237 83.7633 11.575 83.4366 11.155C83.1146 10.735 82.6223 10.525 81.9596 10.525C81.227 10.525 80.6763 10.756 80.3076 11.218C79.939 11.68 79.7546 12.3473 79.7546 13.22C79.7546 14.0507 79.939 14.6947 80.3076 15.152C80.6763 15.6047 81.2083 15.831 81.9036 15.831C82.361 15.831 82.7553 15.7283 83.0866 15.523C83.4226 15.313 83.684 15.0143 83.8706 14.627L85.3056 15.082C85.0116 15.7587 84.566 16.2837 83.9686 16.657C83.3713 17.0257 82.7063 17.21 81.9736 17.21ZM79.2786 13.633V12.492H84.6756V13.633H79.2786ZM88.9724 17.21C88.4124 17.21 87.9434 17.1073 87.5654 16.902C87.1874 16.692 86.9004 16.4167 86.7044 16.076C86.5131 15.7307 86.4174 15.3527 86.4174 14.942C86.4174 14.5593 86.4851 14.2233 86.6204 13.934C86.7558 13.6447 86.9564 13.3997 87.2224 13.199C87.4884 12.9937 87.8151 12.828 88.2024 12.702C88.5384 12.604 88.9188 12.5177 89.3434 12.443C89.7681 12.3683 90.2138 12.2983 90.6804 12.233C91.1518 12.1677 91.6184 12.1023 92.0804 12.037L91.5484 12.331C91.5578 11.7383 91.4318 11.2997 91.1704 11.015C90.9138 10.7257 90.4704 10.581 89.8404 10.581C89.4438 10.581 89.0798 10.6743 88.7484 10.861C88.4171 11.043 88.1861 11.3463 88.0554 11.771L86.6904 11.351C86.8771 10.7023 87.2318 10.1867 87.7544 9.804C88.2818 9.42133 88.9818 9.23 89.8544 9.23C90.5311 9.23 91.1191 9.34667 91.6184 9.58C92.1224 9.80867 92.4911 10.1727 92.7244 10.672C92.8458 10.9193 92.9204 11.1807 92.9484 11.456C92.9764 11.7313 92.9904 12.0277 92.9904 12.345V17H91.6954V15.271L91.9474 15.495C91.6348 16.0737 91.2358 16.5053 90.7504 16.79C90.2698 17.07 89.6771 17.21 88.9724 17.21ZM89.2314 16.013C89.6468 16.013 90.0038 15.9407 90.3024 15.796C90.6011 15.6467 90.8414 15.4577 91.0234 15.229C91.2054 15.0003 91.3244 14.7623 91.3804 14.515C91.4598 14.291 91.5041 14.039 91.5134 13.759C91.5274 13.479 91.5344 13.255 91.5344 13.087L92.0104 13.262C91.5484 13.332 91.1284 13.395 90.7504 13.451C90.3724 13.507 90.0294 13.563 89.7214 13.619C89.4181 13.6703 89.1474 13.7333 88.9094 13.808C88.7088 13.878 88.5291 13.962 88.3704 14.06C88.2164 14.158 88.0928 14.277 87.9994 14.417C87.9108 14.557 87.8664 14.7273 87.8664 14.928C87.8664 15.124 87.9154 15.306 88.0134 15.474C88.1114 15.6373 88.2608 15.768 88.4614 15.866C88.6621 15.964 88.9188 16.013 89.2314 16.013ZM99.1341 17C98.6581 17.0933 98.1915 17.133 97.7341 17.119C97.2768 17.105 96.8685 17.0163 96.5091 16.853C96.1498 16.6897 95.8791 16.433 95.6971 16.083C95.5338 15.7703 95.4451 15.453 95.4311 15.131C95.4218 14.8043 95.4171 14.4357 95.4171 14.025V7.34H96.8871V13.955C96.8871 14.2583 96.8895 14.522 96.8941 14.746C96.9035 14.97 96.9525 15.159 97.0411 15.313C97.2091 15.6023 97.4751 15.768 97.8391 15.81C98.2078 15.8473 98.6395 15.831 99.1341 15.761V17ZM93.9681 10.616V9.44H99.1341V10.616H93.9681ZM103.739 17.21C102.988 17.21 102.328 17.0467 101.758 16.72C101.194 16.3887 100.753 15.929 100.435 15.341C100.123 14.7483 99.9663 14.0623 99.9663 13.283C99.9663 12.457 100.12 11.7407 100.428 11.134C100.741 10.5273 101.175 10.0583 101.73 9.727C102.286 9.39567 102.932 9.23 103.669 9.23C104.439 9.23 105.095 9.40967 105.636 9.769C106.178 10.1237 106.581 10.63 106.847 11.288C107.118 11.946 107.225 12.7277 107.169 13.633H105.706V13.101C105.697 12.2237 105.529 11.575 105.202 11.155C104.88 10.735 104.388 10.525 103.725 10.525C102.993 10.525 102.442 10.756 102.073 11.218C101.705 11.68 101.52 12.3473 101.52 13.22C101.52 14.0507 101.705 14.6947 102.073 15.152C102.442 15.6047 102.974 15.831 103.669 15.831C104.127 15.831 104.521 15.7283 104.852 15.523C105.188 15.313 105.45 15.0143 105.636 14.627L107.071 15.082C106.777 15.7587 106.332 16.2837 105.734 16.657C105.137 17.0257 104.472 17.21 103.739 17.21ZM101.044 13.633V12.492H106.441V13.633H101.044ZM111.543 17V6.92H113.006V11.624L117.227 6.92H119.047L114.588 11.841L119.376 17H117.5L113.006 12.184V17H111.543ZM120.361 17V6.92H124.435C124.533 6.92 124.654 6.92467 124.799 6.934C124.944 6.93867 125.081 6.95267 125.212 6.976C125.772 7.06467 126.239 7.256 126.612 7.55C126.99 7.844 127.272 8.215 127.459 8.663C127.646 9.111 127.739 9.60567 127.739 10.147C127.739 10.693 127.646 11.19 127.459 11.638C127.272 12.086 126.99 12.457 126.612 12.751C126.239 13.045 125.772 13.2363 125.212 13.325C125.081 13.3437 124.941 13.3577 124.792 13.367C124.647 13.3763 124.528 13.381 124.435 13.381H121.824V17H120.361ZM121.824 11.995H124.379C124.472 11.995 124.575 11.9903 124.687 11.981C124.804 11.9717 124.913 11.9553 125.016 11.932C125.315 11.862 125.555 11.7337 125.737 11.547C125.919 11.3557 126.05 11.1363 126.129 10.889C126.208 10.6417 126.248 10.3943 126.248 10.147C126.248 9.89967 126.208 9.65467 126.129 9.412C126.05 9.16467 125.919 8.94767 125.737 8.761C125.555 8.56967 125.315 8.439 125.016 8.369C124.913 8.341 124.804 8.32233 124.687 8.313C124.575 8.30367 124.472 8.299 124.379 8.299H121.824V11.995ZM129.278 17V6.92H130.741V17H129.278Z" fill="black"/>
</svg>
