<svg width="28" height="29" viewBox="0 0 28 29" fill="none" xmlns="http://www.w3.org/2000/svg">
<path d="M8.2031 2.16254H8.19936C8.17998 1.07018 7.52931 0.222389 6.73756 0.207367V0.20455H1.40367V0.209713C0.619397 0.236471 0.0210772 1.0791 0.00339962 2.16301H0V26.1977H0.00271976C0.0173378 27.2774 0.627556 28.1172 1.40367 28.159V28.2046H6.73756C7.55379 28.2041 8.2031 27.3244 8.2031 26.1982V2.16254ZM5.5 17.7461C5.21946 17.751 3.54221 25.7958 3.282 25.6509C3.0218 25.5061 2.78501 25.2913 2.58538 25.019C2.38576 24.7468 2.22726 24.4226 2.1191 24.0651C2.01093 23.7076 2.5856 26.5852 2.58563 26.1977C2.58565 25.8103 6.3992 25.3765 6.50741 25.019C6.61561 24.6616 2.38597 21.1265 2.58563 20.8543C2.78528 20.5822 3.02209 20.3674 3.28232 20.2226C3.54255 20.0778 3.21946 26.7412 3.5 26.7461C4.05737 26.7559 5.19105 20.3331 5.58267 20.8809C5.97429 21.4286 1.95531 18.9764 1.95526 19.7461C1.95522 20.5158 5.97412 24.4455 5.58243 24.9932C5.19075 25.5408 6.05737 17.7364 5.5 17.7461ZM6.50741 15.3431H1.69535L7 15.7461L6.50741 2.54559V15.3431ZM18.1015 2.16254H18.0978C18.0784 1.07018 17.4278 0.222389 16.636 0.207367V0.20455H11.3021V0.209713C10.5178 0.236471 9.91953 1.0791 9.90185 2.16301H9.89845V26.1977H9.90117C9.91579 27.2774 10.526 28.1172 11.3021 28.159V28.2046H16.636C17.4522 28.2041 18.1015 27.3244 18.1015 26.1982V2.16254ZM13.9997 25.863C13.7191 25.8679 14.2599 24.8073 13.9997 24.6624C13.7395 24.5175 14.1993 21.1266 13.9997 20.8543C13.8 20.5821 13.8778 26.6409 13.7696 26.2834C13.6615 25.9259 15.4811 25.4065 15.4812 25.019C15.4812 24.6316 15.9842 25.3765 16.0924 25.019C16.2006 24.6616 19.5159 26.0963 15.5 21.7461C15.6997 21.4739 16.3189 25.0886 15.5 21.2461C15.7602 21.1013 13.4148 26.2855 13.6953 26.2905C14.2527 26.3002 13.608 25.1032 13.9997 25.6509C14.3913 26.1986 15 25.4764 15 26.2461C15 27.0158 15.8728 24.4453 15.4812 24.993C15.0895 25.5407 14.557 25.8533 13.9997 25.863ZM28 2.16254H27.9963C27.9769 1.07018 27.3262 0.222389 26.5345 0.207367V0.20455H21.2006V0.209713C20.4163 0.236471 19.818 1.0791 19.8003 2.16301H19.7969V26.1977H19.7996C19.8142 27.2774 20.4245 28.1172 21.2006 28.159V28.2046H26.5345C27.3507 28.2041 28 27.3244 28 26.1982V2.16254ZM25.9165 22.576C25.636 22.5809 25.2602 23.8494 25 23.7045C24.7398 23.5597 26.1161 22.8482 25.9165 22.576C25.7169 22.3038 22.0245 24.4226 21.9163 24.0651C21.8082 23.7076 22.1134 23.5178 22.1134 23.1304C22.1134 22.743 22.971 23.2941 23.0792 22.9366C23.1875 22.5792 24.3003 26.0039 24.5 25.7317C24.6997 25.4596 22.819 22.0439 23.0792 21.899C23.3395 21.7542 22.1179 21.8941 22.3984 21.899C22.9558 21.9088 21.5247 23.5173 21.9163 24.0651C22.308 24.6128 26 21.9348 26 22.7045C26 23.4743 22.2469 22.8883 25.3797 24.9932C25.6953 24.2905 26.4739 22.5663 25.9165 22.576ZM26.3046 15.3431V8.94437V8.20455V2.54559V15.3431Z" fill="black"/>
</svg>
