<?xml version="1.0" standalone="no"?>
<!DOCTYPE svg PUBLIC "-//W3C//DTD SVG 20010904//EN"
 "http://www.w3.org/TR/2001/REC-SVG-20010904/DTD/svg10.dtd">
<svg version="1.0" xmlns="http://www.w3.org/2000/svg"
 width="415.000000pt" height="109.000000pt" viewBox="0 0 415.000000 109.000000"
 preserveAspectRatio="xMidYMid meet">

<g transform="translate(0.000000,109.000000) scale(0.100000,-0.100000)"
fill="#000000" stroke="none">
<path d="M705 1080 c3 -5 -3 -10 -15 -10 -11 0 -40 -10 -63 -21 -90 -46 -161
-126 -247 -279 -109 -192 -163 -256 -235 -280 -36 -12 -95 -10 -127 4 -15 7
-18 3 -18 -26 0 -19 5 -39 12 -46 9 -9 9 -12 0 -12 -7 0 -12 -14 -12 -35 0
-34 1 -35 43 -36 l42 -1 -42 -10 -43 -9 0 -160 0 -159 2075 0 2075 0 0 163 0
162 -639 -3 c-385 -2 -653 1 -673 7 l-33 9 40 1 c44 1 125 29 125 43 0 5 4 7
9 4 7 -5 59 41 102 90 22 26 76 110 150 237 35 59 71 116 81 126 9 11 14 22
10 26 -4 4 -2 5 3 3 6 -1 28 11 49 27 33 25 49 30 95 30 32 0 71 -7 91 -17 40
-19 126 -120 160 -188 12 -25 31 -57 42 -72 11 -16 17 -28 13 -28 -3 0 -1 -6
5 -13 6 -6 25 -34 43 -62 17 -27 39 -57 47 -65 8 -9 27 -30 41 -47 38 -45 138
-93 194 -93 l45 0 0 68 0 68 -45 12 c-33 9 -60 27 -95 62 -27 28 -47 50 -44
50 3 0 -4 10 -16 22 -11 12 -20 28 -20 35 0 7 -5 13 -10 13 -6 0 -9 3 -8 8 2
8 -23 54 -64 116 -15 22 -28 46 -28 51 0 6 -11 24 -25 40 -14 17 -33 41 -43
53 -46 63 -152 132 -202 132 -12 0 -18 5 -15 10 4 6 -18 10 -60 10 -42 0 -64
-4 -60 -10 3 -5 -2 -10 -12 -10 -29 0 -116 -45 -158 -81 -37 -33 -126 -161
-174 -249 -13 -25 -30 -52 -36 -60 -7 -8 -20 -30 -30 -49 -24 -47 -110 -128
-152 -142 -50 -16 -119 -6 -150 22 -15 13 -23 17 -18 9 4 -8 -13 7 -38 35 -25
27 -43 53 -41 57 3 4 2 8 -3 8 -7 0 -23 23 -64 95 -9 17 -26 46 -37 65 -12 19
-30 51 -41 70 -28 50 -50 78 -101 128 -45 44 -129 92 -162 92 -10 0 -18 5 -18
10 0 6 -29 10 -66 10 -41 0 -63 -4 -59 -10 3 -5 -2 -10 -13 -10 -31 0 -114
-48 -160 -93 -24 -23 -64 -73 -90 -110 -40 -59 -45 -71 -34 -87 7 -11 12 -31
12 -45 0 -15 4 -24 10 -20 6 3 10 18 10 34 0 26 2 27 50 28 28 0 50 -4 50 -9
0 -5 13 5 30 23 16 18 27 36 24 40 -2 4 1 11 7 15 8 5 10 2 5 -7 -4 -8 0 -5 8
5 9 11 16 22 16 25 0 3 23 19 51 35 45 25 58 28 106 23 45 -5 64 -13 102 -45
46 -39 106 -116 139 -182 40 -78 99 -174 126 -207 93 -111 159 -152 246 -154
l55 -1 -40 -9 c-50 -10 -1249 -9 -1290 1 -27 7 -25 8 18 9 67 1 141 41 210
113 31 33 57 64 57 70 0 6 11 23 25 40 14 16 25 35 25 43 0 7 6 17 13 23 8 7
11 31 9 71 -4 73 -22 82 -22 11 0 -50 -15 -69 -23 -27 -3 21 -4 21 -15 -5 -6
-14 -16 -29 -22 -33 -9 -5 -9 -2 -3 11 6 11 7 30 3 44 -7 23 -8 24 -15 6 -6
-13 -4 -21 3 -24 15 -5 5 -22 -13 -22 -25 0 -24 29 2 60 30 36 24 51 -8 21
-12 -11 -22 -33 -23 -51 -1 -20 -6 -30 -16 -30 -9 0 -23 -15 -33 -32 -26 -48
-96 -119 -134 -134 -45 -19 -102 -17 -145 5 -39 19 -98 70 -98 84 0 5 -6 15
-12 22 -36 40 -71 95 -61 95 5 0 3 4 -3 8 -6 4 -28 39 -49 77 -37 69 -85 137
-115 163 -13 12 -13 13 0 6 8 -4 2 5 -13 19 -15 15 -32 27 -38 27 -5 0 -9 4
-9 9 0 12 -98 61 -122 61 -10 0 -18 5 -18 10 0 6 -29 10 -66 10 -41 0 -63 -4
-59 -10z m25 -74 c0 -2 -7 -6 -15 -10 -8 -3 -15 -1 -15 4 0 6 7 10 15 10 8 0
15 -2 15 -4z m57 -2 c-3 -3 -12 -4 -19 -1 -8 3 -5 6 6 6 11 1 17 -2 13 -5z
m63 -10 c0 -2 -7 -4 -15 -4 -8 0 -15 4 -15 10 0 5 7 7 15 4 8 -4 15 -8 15 -10z
m1237 10 c-3 -3 -12 -4 -19 -1 -8 3 -5 6 6 6 11 1 17 -2 13 -5z m60 0 c-3 -3
-12 -4 -19 -1 -8 3 -5 6 6 6 11 1 17 -2 13 -5z m1300 0 c-3 -3 -12 -4 -19 -1
-8 3 -5 6 6 6 11 1 17 -2 13 -5z m-1422 -14 c-3 -5 -12 -10 -18 -10 -7 0 -6 4
3 10 19 12 23 12 15 0z m182 4 c-3 -3 -12 -4 -19 -1 -8 3 -5 6 6 6 11 1 17 -2
13 -5z m1178 -4 c-3 -5 -12 -10 -18 -10 -7 0 -6 4 3 10 19 12 23 12 15 0z
m185 0 c0 -5 -2 -10 -4 -10 -3 0 -8 5 -11 10 -3 6 -1 10 4 10 6 0 11 -4 11
-10z m-2900 -4 c0 -2 -7 -7 -16 -10 -8 -3 -12 -2 -9 4 6 10 25 14 25 6z m1595
-24 c-3 -3 -11 0 -18 7 -9 10 -8 11 6 5 10 -3 15 -9 12 -12z m-295 -7 c-7 -9
-15 -13 -19 -10 -3 3 1 10 9 15 21 14 24 12 10 -5z m1365 5 c-3 -5 -11 -10
-16 -10 -6 0 -7 5 -4 10 3 6 11 10 16 10 6 0 7 -4 4 -10z m290 0 c3 -6 -1 -7
-9 -4 -18 7 -21 14 -7 14 6 0 13 -4 16 -10z m-1315 -30 c0 -5 -2 -10 -4 -10
-3 0 -8 5 -11 10 -3 6 -1 10 4 10 6 0 11 -4 11 -10z m-1467 -19 c40 -18 127
-107 127 -129 0 -6 4 -12 8 -14 5 -1 28 -39 52 -83 24 -44 58 -101 77 -127 18
-26 33 -50 33 -53 0 -17 120 -135 120 -118 0 4 4 3 8 -3 12 -20 82 -44 131
-45 42 -1 43 -2 16 -9 -39 -10 -1261 -10 -1300 0 -26 7 -24 8 20 9 55 1 152
41 161 66 3 8 9 13 14 10 16 -10 82 78 165 220 32 55 71 119 87 143 16 23 27
42 24 42 -11 0 80 78 109 93 41 22 97 21 148 -2z m1079 -3 c-7 -7 -12 -8 -12
-2 0 14 12 26 19 19 2 -3 -1 -11 -7 -17z m-1352 8 c0 -2 -8 -10 -17 -17 -16
-13 -17 -12 -4 4 13 16 21 21 21 13z m425 -26 c3 -5 2 -10 -4 -10 -5 0 -13 5
-16 10 -3 6 -2 10 4 10 5 0 13 -4 16 -10z m1356 -7 c13 -16 12 -17 -3 -4 -17
13 -22 21 -14 21 2 0 10 -8 17 -17z m891 -15 c-7 -7 -12 -8 -12 -2 0 14 12 26
19 19 2 -3 -1 -11 -7 -17z m469 5 c13 -16 12 -17 -3 -4 -17 13 -22 21 -14 21
2 0 10 -8 17 -17z m-1828 -8 c-3 -9 -8 -14 -10 -11 -3 3 -2 9 2 15 9 16 15 13
8 -4z m-1360 -10 c-3 -9 -8 -14 -10 -11 -3 3 -2 9 2 15 9 16 15 13 8 -4z m507
-16 c0 -6 -4 -7 -10 -4 -5 3 -10 11 -10 16 0 6 5 7 10 4 6 -3 10 -11 10 -16z
m1360 -10 c0 -6 -4 -7 -10 -4 -5 3 -10 11 -10 16 0 6 5 7 10 4 6 -3 10 -11 10
-16z m811 -12 c-10 -9 -11 -8 -5 6 3 10 9 15 12 12 3 -3 0 -11 -7 -18z m547
-2 c-3 -3 -9 2 -12 12 -6 14 -5 15 5 6 7 -7 10 -15 7 -18z m-1907 -8 c-10 -9
-11 -8 -5 6 3 10 9 15 12 12 3 -3 0 -11 -7 -18z m-1360 -10 c-10 -9 -11 -8 -5
6 3 10 9 15 12 12 3 -3 0 -11 -7 -18z m584 -7 c3 -5 1 -10 -4 -10 -6 0 -11 5
-11 10 0 6 2 10 4 10 3 0 8 -4 11 -10z m1353 -15 c-3 -3 -9 2 -12 12 -6 14 -5
15 5 6 7 -7 10 -15 7 -18z m1360 -10 c-3 -3 -9 2 -12 12 -6 14 -5 15 5 6 7 -7
10 -15 7 -18z m-3327 -18 c-10 -9 -11 -8 -5 6 3 10 9 15 12 12 3 -3 0 -11 -7
-18z m2691 -39 c-7 -7 -12 -8 -12 -2 0 14 12 26 19 19 2 -3 -1 -11 -7 -17z
m-2712 -8 c0 -5 -5 -10 -11 -10 -5 0 -7 5 -4 10 3 6 8 10 11 10 2 0 4 -4 4
-10z m2050 -20 c0 -5 -2 -10 -4 -10 -3 0 -8 5 -11 10 -3 6 -1 10 4 10 6 0 11
-4 11 -10z m631 -23 c-10 -9 -11 -8 -5 6 3 10 9 15 12 12 3 -3 0 -11 -7 -18z
m729 13 c0 -5 -2 -10 -4 -10 -3 0 -8 5 -11 10 -3 6 -1 10 4 10 6 0 11 -4 11
-10z m-3448 -32 c-7 -7 -12 -8 -12 -2 0 14 12 26 19 19 2 -3 -1 -11 -7 -17z
m2123 -18 c3 -5 1 -10 -4 -10 -6 0 -11 5 -11 10 0 6 2 10 4 10 3 0 8 -4 11
-10z m1356 -7 c13 -16 12 -17 -3 -4 -10 7 -18 15 -18 17 0 8 8 3 21 -13z
m-3509 -25 c-7 -7 -12 -8 -12 -2 0 6 3 14 7 17 3 4 9 5 12 2 2 -3 -1 -11 -7
-17z m1368 18 c0 -3 -4 -8 -10 -11 -5 -3 -10 -1 -10 4 0 6 5 11 10 11 6 0 10
-2 10 -4z m-542 -41 c-3 -3 -9 2 -12 12 -6 14 -5 15 5 6 7 -7 10 -15 7 -18z
m2722 -6 c0 -6 -4 -7 -10 -4 -5 3 -10 11 -10 16 0 6 5 7 10 4 6 -3 10 -11 10
-16z m-868 -11 c-7 -7 -12 -8 -12 -2 0 14 12 26 19 19 2 -3 -1 -11 -7 -17z
m-1352 2 c0 -5 -5 -10 -11 -10 -5 0 -7 5 -4 10 3 6 8 10 11 10 2 0 4 -4 4 -10z
m-460 -31 c0 -6 -4 -7 -10 -4 -5 3 -10 11 -10 16 0 6 5 7 10 4 6 -3 10 -11 10
-16z m1355 1 c3 -5 1 -10 -4 -10 -6 0 -11 5 -11 10 0 6 2 10 4 10 3 0 8 -4 11
-10z m430 -10 c-3 -5 -11 -10 -16 -10 -6 0 -7 5 -4 10 3 6 11 10 16 10 6 0 7
-4 4 -10z m-2715 -4 c0 -2 -8 -10 -17 -17 -16 -13 -17 -12 -4 4 13 16 21 21
21 13z m1350 -6 c0 -5 -5 -10 -11 -10 -5 0 -7 5 -4 10 3 6 8 10 11 10 2 0 4
-4 4 -10z m980 -31 c0 -6 -4 -7 -10 -4 -5 3 -10 11 -10 16 0 6 5 7 10 4 6 -3
10 -11 10 -16z m332 -11 c-7 -7 -12 -8 -12 -2 0 14 12 26 19 19 2 -3 -1 -11
-7 -17z m-2712 3 c0 -5 -7 -12 -16 -15 -14 -5 -15 -4 -4 9 14 17 20 19 20 6z
m1355 -1 c-3 -5 -12 -10 -18 -10 -7 0 -6 4 3 10 19 12 23 12 15 0z m-285 -20
c0 -5 -2 -10 -4 -10 -3 0 -8 5 -11 10 -3 6 -1 10 4 10 6 0 11 -4 11 -10z m235
-10 c-3 -5 -12 -10 -18 -10 -7 0 -6 4 3 10 19 12 23 12 15 0z m1360 0 c-3 -5
-11 -10 -16 -10 -6 0 -7 5 -4 10 3 6 11 10 16 10 6 0 7 -4 4 -10z m-2718 -6
c-3 -3 -12 -4 -19 -1 -8 3 -5 6 6 6 11 1 17 -2 13 -5z m1178 -12 c-3 -3 -11 0
-18 7 -9 10 -8 11 6 5 10 -3 15 -9 12 -12z m-1245 -2 c0 -5 -5 -10 -11 -10 -5
0 -7 5 -4 10 3 6 8 10 11 10 2 0 4 -4 4 -10z m1365 0 c-3 -5 -11 -10 -16 -10
-6 0 -7 5 -4 10 3 6 11 10 16 10 6 0 7 -4 4 -10z m1242 4 c-3 -3 -12 -4 -19
-1 -8 3 -5 6 6 6 11 1 17 -2 13 -5z m-2660 -10 c-3 -3 -12 -4 -19 -1 -8 3 -5
6 6 6 11 1 17 -2 13 -5z m1360 0 c-3 -3 -12 -4 -19 -1 -8 3 -5 6 6 6 11 1 17
-2 13 -5z m1360 0 c-3 -3 -12 -4 -19 -1 -8 3 -5 6 6 6 11 1 17 -2 13 -5z
m1126 -189 c4 -8 3 -16 -1 -19 -4 -3 -9 4 -9 15 -2 23 3 25 10 4z m42 -5 c3
-6 -1 -7 -9 -4 -18 7 -21 14 -7 14 6 0 13 -4 16 -10z m-256 -82 c1 17 21 15
21 -3 0 -8 -9 -15 -20 -15 -14 0 -20 6 -19 23 0 21 1 21 9 2 5 -11 9 -14 9 -7z
m-74 -6 c3 -7 0 -10 -5 -7 -6 3 -10 0 -10 -7 0 -9 -3 -9 -10 2 -5 8 -10 11
-10 6 0 -5 -7 -3 -15 4 -8 7 -15 8 -15 3 0 -13 -33 -12 -42 1 -5 8 -8 7 -8 -1
0 -7 -9 -13 -20 -13 -11 0 -20 4 -20 9 0 20 147 23 155 3z m45 -3 c0 -5 -7 -9
-15 -9 -15 0 -20 12 -9 23 8 8 24 -1 24 -14z m110 4 c0 -15 -2 -16 -10 -3 -9
13 -10 13 -10 0 0 -12 -2 -13 -9 -1 -7 11 -9 11 -14 0 -4 -10 -6 -9 -6 4 -1
12 7 17 24 17 17 0 25 -5 25 -17z m40 7 c0 -3 -6 -14 -12 -23 -12 -16 -13 -15
-14 6 -1 14 4 24 12 24 8 0 14 -3 14 -7z m37 -11 c2 -16 -1 -19 -9 -11 -5 5
-7 15 -4 21 10 15 12 14 13 -10z m38 -9 c-5 -8 -11 -8 -17 -2 -6 6 -7 16 -3
22 5 8 11 8 17 2 6 -6 7 -16 3 -22z m62 10 c4 -13 3 -13 -6 0 -10 13 -11 13
-11 0 0 -12 -2 -13 -9 -1 -7 11 -9 11 -14 0 -4 -10 -6 -8 -6 4 -1 23 40 20 46
-3z"/>
<path d="M1852 721 c1 -22 5 -38 8 -36 11 7 11 75 0 75 -6 0 -10 -17 -8 -39z"/>
</g>
</svg>
