<svg width="28" height="28" viewBox="0 0 28 28" fill="none" xmlns="http://www.w3.org/2000/svg">
<path fill-rule="evenodd" clip-rule="evenodd" d="M19.5691 14.0005C19.5691 13.722 19.4625 13.455 19.2727 13.258C19.0829 13.0611 18.8254 12.9505 18.557 12.9505H3.74843L6.39489 10.5985C6.4959 10.5088 6.5789 10.3993 6.63913 10.2763C6.69936 10.1533 6.73565 10.0192 6.74593 9.88168C6.7562 9.74414 6.74026 9.60585 6.69902 9.4747C6.65778 9.34354 6.59203 9.2221 6.50555 9.11731C6.41906 9.01251 6.31353 8.92642 6.19497 8.86393C6.07641 8.80145 5.94714 8.7638 5.81456 8.75314C5.68197 8.74248 5.54866 8.75902 5.42224 8.8018C5.29581 8.84459 5.17875 8.91279 5.07773 9.00251L0.354333 13.2025C0.243219 13.3011 0.154009 13.4235 0.0928411 13.5612C0.0316734 13.699 0 13.8488 0 14.0005C0 14.1522 0.0316734 14.302 0.0928411 14.4398C0.154009 14.5776 0.243219 14.6999 0.354333 14.7985L5.07773 18.9985C5.28175 19.1797 5.54679 19.2694 5.81456 19.2479C6.08233 19.2263 6.33088 19.0954 6.50555 18.8837C6.68021 18.6721 6.76668 18.3971 6.74593 18.1193C6.72517 17.8416 6.5989 17.5837 6.39489 17.4025L3.74978 15.0505H18.557C18.8254 15.0505 19.0829 14.9399 19.2727 14.743C19.4625 14.5461 19.5691 14.279 19.5691 14.0005Z" fill="black"/>
<path d="M10.4531 8.4C10.4531 9.3828 10.4531 9.8742 10.6812 10.2284C10.7794 10.3807 10.9055 10.5115 11.0523 10.6134C11.3938 10.85 11.8674 10.85 12.8148 10.85H18.5504C19.3557 10.85 20.128 11.1819 20.6975 11.7726C21.2669 12.3634 21.5869 13.1646 21.5869 14C21.5869 14.8354 21.2669 15.6366 20.6975 16.2274C20.128 16.8181 19.3557 17.15 18.5504 17.15H12.8148C11.8674 17.15 11.3938 17.15 11.0523 17.3852C10.9054 17.4875 10.7793 17.6188 10.6812 17.7716C10.4531 18.1258 10.4531 18.6172 10.4531 19.6C10.4531 23.5592 10.4531 25.5402 11.6394 26.7694C12.8243 28 14.7325 28 18.549 28H19.8986C23.7178 28 25.6247 28 26.8109 26.7694C27.9972 25.5402 27.9972 23.5592 27.9972 19.6V8.4C27.9972 4.4408 27.9972 2.4598 26.8109 1.2306C25.6247 0.0013999 23.7164 0 19.8999 0H18.5504C14.7325 0 12.8243 -8.34465e-08 11.6394 1.2306C10.4531 2.4598 10.4531 4.4408 10.4531 8.4Z" fill="black"/>
</svg>
