<svg width="916" height="901" viewBox="0 0 916 901" fill="none" xmlns="http://www.w3.org/2000/svg">
<path d="M327.892 770V726.8H335.122V770H327.892ZM344.108 770V726.8H357.878C358.238 726.8 358.948 726.81 360.008 726.83C361.088 726.85 362.128 726.92 363.128 727.04C366.548 727.48 369.438 728.7 371.798 730.7C374.178 732.68 375.978 735.21 377.198 738.29C378.418 741.37 379.028 744.74 379.028 748.4C379.028 752.06 378.418 755.43 377.198 758.51C375.978 761.59 374.178 764.13 371.798 766.13C369.438 768.11 366.548 769.32 363.128 769.76C362.148 769.88 361.118 769.95 360.038 769.97C358.958 769.99 358.238 770 357.878 770H344.108ZM351.458 763.19H357.878C358.478 763.19 359.238 763.17 360.158 763.13C361.098 763.09 361.928 763 362.648 762.86C364.688 762.48 366.348 761.57 367.628 760.13C368.908 758.69 369.848 756.94 370.448 754.88C371.068 752.82 371.378 750.66 371.378 748.4C371.378 746.06 371.068 743.86 370.448 741.8C369.828 739.74 368.868 738.01 367.568 736.61C366.288 735.21 364.648 734.32 362.648 733.94C361.928 733.78 361.098 733.69 360.158 733.67C359.238 733.63 358.478 733.61 357.878 733.61H351.458V763.19ZM386.12 770V726.8H414.02V733.58H393.35V744.23H410.42V751.01H393.35V763.22H414.02V770H386.12ZM418.218 770L431.838 726.8H442.428L456.048 770H448.608L436.248 731.24H437.868L425.658 770H418.218ZM425.808 760.64V753.89H448.488V760.64H425.808ZM468.277 770V733.58H454.297V726.8H489.487V733.58H475.507V770H468.277ZM494.884 770V726.8H502.114V770H494.884ZM529.37 770.9C525.05 770.9 521.35 769.96 518.27 768.08C515.19 766.18 512.82 763.54 511.16 760.16C509.52 756.78 508.7 752.86 508.7 748.4C508.7 743.94 509.52 740.02 511.16 736.64C512.82 733.26 515.19 730.63 518.27 728.75C521.35 726.85 525.05 725.9 529.37 725.9C533.69 725.9 537.39 726.85 540.47 728.75C543.57 730.63 545.94 733.26 547.58 736.64C549.24 740.02 550.07 743.94 550.07 748.4C550.07 752.86 549.24 756.78 547.58 760.16C545.94 763.54 543.57 766.18 540.47 768.08C537.39 769.96 533.69 770.9 529.37 770.9ZM529.37 764.09C532.27 764.11 534.68 763.47 536.6 762.17C538.54 760.87 539.99 759.04 540.95 756.68C541.93 754.32 542.42 751.56 542.42 748.4C542.42 745.24 541.93 742.5 540.95 740.18C539.99 737.84 538.54 736.02 536.6 734.72C534.68 733.42 532.27 732.75 529.37 732.71C526.47 732.69 524.06 733.33 522.14 734.63C520.22 735.93 518.77 737.76 517.79 740.12C516.83 742.48 516.35 745.24 516.35 748.4C516.35 751.56 516.83 754.31 517.79 756.65C518.75 758.97 520.19 760.78 522.11 762.08C524.05 763.38 526.47 764.05 529.37 764.09ZM556.042 770V726.8H563.362L583.402 757.25V726.8H590.722V770H583.402L563.362 739.55V770H556.042Z" fill="#333333"/>
<path d="M169.679 834V805.2H172.619V818.18H188.539V805.2H191.459V834H188.539V821H172.619V834H169.679ZM206.202 834.6C204.095 834.6 202.268 834.133 200.722 833.2C199.188 832.267 197.995 830.953 197.142 829.26C196.288 827.567 195.862 825.58 195.862 823.3C195.862 820.94 196.282 818.9 197.122 817.18C197.962 815.46 199.142 814.133 200.662 813.2C202.195 812.267 204.002 811.8 206.082 811.8C208.215 811.8 210.035 812.293 211.542 813.28C213.048 814.253 214.188 815.653 214.962 817.48C215.735 819.307 216.088 821.487 216.022 824.02H213.022V822.98C212.968 820.18 212.362 818.067 211.202 816.64C210.055 815.213 208.375 814.5 206.162 814.5C203.842 814.5 202.062 815.253 200.822 816.76C199.595 818.267 198.982 820.413 198.982 823.2C198.982 825.92 199.595 828.033 200.822 829.54C202.062 831.033 203.815 831.78 206.082 831.78C207.628 831.78 208.975 831.427 210.122 830.72C211.282 830 212.195 828.967 212.862 827.62L215.602 828.68C214.748 830.56 213.488 832.02 211.822 833.06C210.168 834.087 208.295 834.6 206.202 834.6ZM197.942 824.02V821.56H214.442V824.02H197.942ZM220.46 834V812.4H223.1V817.6L222.58 816.92C222.82 816.28 223.133 815.693 223.52 815.16C223.907 814.613 224.327 814.167 224.78 813.82C225.34 813.327 225.993 812.953 226.74 812.7C227.487 812.433 228.24 812.28 229 812.24C229.76 812.187 230.453 812.24 231.08 812.4V815.16C230.293 814.96 229.433 814.913 228.5 815.02C227.567 815.127 226.707 815.5 225.92 816.14C225.2 816.7 224.66 817.373 224.3 818.16C223.94 818.933 223.7 819.76 223.58 820.64C223.46 821.507 223.4 822.367 223.4 823.22V834H220.46ZM243.624 834.6C241.517 834.6 239.69 834.133 238.144 833.2C236.61 832.267 235.417 830.953 234.564 829.26C233.71 827.567 233.284 825.58 233.284 823.3C233.284 820.94 233.704 818.9 234.544 817.18C235.384 815.46 236.564 814.133 238.084 813.2C239.617 812.267 241.424 811.8 243.504 811.8C245.637 811.8 247.457 812.293 248.964 813.28C250.47 814.253 251.61 815.653 252.384 817.48C253.157 819.307 253.51 821.487 253.444 824.02H250.444V822.98C250.39 820.18 249.784 818.067 248.624 816.64C247.477 815.213 245.797 814.5 243.584 814.5C241.264 814.5 239.484 815.253 238.244 816.76C237.017 818.267 236.404 820.413 236.404 823.2C236.404 825.92 237.017 828.033 238.244 829.54C239.484 831.033 241.237 831.78 243.504 831.78C245.05 831.78 246.397 831.427 247.544 830.72C248.704 830 249.617 828.967 250.284 827.62L253.024 828.68C252.17 830.56 250.91 832.02 249.244 833.06C247.59 834.087 245.717 834.6 243.624 834.6ZM235.364 824.02V821.56H251.864V824.02H235.364ZM268.97 843.6L273.15 832.26L273.21 835.62L263.75 812.4H266.87L274.63 831.82H273.35L280.51 812.4H283.51L271.91 843.6H268.97ZM295.222 834.6C293.076 834.6 291.242 834.113 289.722 833.14C288.202 832.167 287.036 830.82 286.222 829.1C285.409 827.38 285.002 825.407 285.002 823.18C285.002 820.913 285.416 818.927 286.242 817.22C287.069 815.513 288.242 814.187 289.762 813.24C291.296 812.28 293.116 811.8 295.222 811.8C297.382 811.8 299.222 812.287 300.742 813.26C302.276 814.22 303.442 815.56 304.242 817.28C305.056 818.987 305.462 820.953 305.462 823.18C305.462 825.447 305.056 827.44 304.242 829.16C303.429 830.867 302.256 832.2 300.722 833.16C299.189 834.12 297.356 834.6 295.222 834.6ZM295.222 831.78C297.622 831.78 299.409 830.987 300.582 829.4C301.756 827.8 302.342 825.727 302.342 823.18C302.342 820.567 301.749 818.487 300.562 816.94C299.389 815.393 297.609 814.62 295.222 814.62C293.609 814.62 292.276 814.987 291.222 815.72C290.182 816.44 289.402 817.447 288.882 818.74C288.376 820.02 288.122 821.5 288.122 823.18C288.122 825.78 288.722 827.867 289.922 829.44C291.122 831 292.889 831.78 295.222 831.78ZM318.134 834.54C316.841 834.54 315.708 834.34 314.734 833.94C313.774 833.54 312.954 833 312.274 832.32C311.608 831.64 311.068 830.867 310.654 830C310.241 829.12 309.941 828.193 309.754 827.22C309.568 826.233 309.474 825.253 309.474 824.28V812.4H312.434V823.42C312.434 824.607 312.548 825.707 312.774 826.72C313.001 827.733 313.361 828.62 313.854 829.38C314.361 830.127 315.008 830.707 315.794 831.12C316.594 831.533 317.561 831.74 318.694 831.74C319.734 831.74 320.648 831.56 321.434 831.2C322.234 830.84 322.901 830.327 323.434 829.66C323.981 828.98 324.394 828.16 324.674 827.2C324.954 826.227 325.094 825.133 325.094 823.92L327.174 824.38C327.174 826.593 326.788 828.453 326.014 829.96C325.241 831.467 324.174 832.607 322.814 833.38C321.454 834.153 319.894 834.54 318.134 834.54ZM325.394 834V828.68H325.094V812.4H328.034V834H325.394ZM350.592 834.6C348.419 834.6 346.579 834.113 345.072 833.14C343.565 832.167 342.419 830.827 341.632 829.12C340.859 827.4 340.459 825.427 340.432 823.2C340.459 820.933 340.872 818.947 341.672 817.24C342.472 815.52 343.625 814.187 345.132 813.24C346.639 812.28 348.465 811.8 350.612 811.8C352.799 811.8 354.699 812.333 356.312 813.4C357.939 814.467 359.052 815.927 359.652 817.78L356.772 818.7C356.265 817.407 355.459 816.407 354.352 815.7C353.259 814.98 352.005 814.62 350.592 814.62C349.005 814.62 347.692 814.987 346.652 815.72C345.612 816.44 344.839 817.447 344.332 818.74C343.825 820.033 343.565 821.52 343.552 823.2C343.579 825.787 344.179 827.867 345.352 829.44C346.525 831 348.272 831.78 350.592 831.78C352.059 831.78 353.305 831.447 354.332 830.78C355.372 830.1 356.159 829.113 356.692 827.82L359.652 828.7C358.852 830.62 357.679 832.087 356.132 833.1C354.585 834.1 352.739 834.6 350.592 834.6ZM363.78 834V812.4H366.42V817.6L365.9 816.92C366.14 816.28 366.454 815.693 366.84 815.16C367.227 814.613 367.647 814.167 368.1 813.82C368.66 813.327 369.314 812.953 370.06 812.7C370.807 812.433 371.56 812.28 372.32 812.24C373.08 812.187 373.774 812.24 374.4 812.4V815.16C373.614 814.96 372.754 814.913 371.82 815.02C370.887 815.127 370.027 815.5 369.24 816.14C368.52 816.7 367.98 817.373 367.62 818.16C367.26 818.933 367.02 819.76 366.9 820.64C366.78 821.507 366.72 822.367 366.72 823.22V834H363.78ZM386.944 834.6C384.837 834.6 383.011 834.133 381.464 833.2C379.931 832.267 378.737 830.953 377.884 829.26C377.031 827.567 376.604 825.58 376.604 823.3C376.604 820.94 377.024 818.9 377.864 817.18C378.704 815.46 379.884 814.133 381.404 813.2C382.937 812.267 384.744 811.8 386.824 811.8C388.957 811.8 390.777 812.293 392.284 813.28C393.791 814.253 394.931 815.653 395.704 817.48C396.477 819.307 396.831 821.487 396.764 824.02H393.764V822.98C393.711 820.18 393.104 818.067 391.944 816.64C390.797 815.213 389.117 814.5 386.904 814.5C384.584 814.5 382.804 815.253 381.564 816.76C380.337 818.267 379.724 820.413 379.724 823.2C379.724 825.92 380.337 828.033 381.564 829.54C382.804 831.033 384.557 831.78 386.824 831.78C388.371 831.78 389.717 831.427 390.864 830.72C392.024 830 392.937 828.967 393.604 827.62L396.344 828.68C395.491 830.56 394.231 832.02 392.564 833.06C390.911 834.087 389.037 834.6 386.944 834.6ZM378.684 824.02V821.56H395.184V824.02H378.684ZM406.992 834.6C405.365 834.6 403.998 834.307 402.892 833.72C401.798 833.133 400.978 832.353 400.432 831.38C399.885 830.407 399.612 829.347 399.612 828.2C399.612 827.027 399.845 826.027 400.312 825.2C400.792 824.36 401.438 823.673 402.252 823.14C403.078 822.607 404.032 822.2 405.112 821.92C406.205 821.653 407.412 821.42 408.732 821.22C410.065 821.007 411.365 820.827 412.632 820.68C413.912 820.52 415.032 820.367 415.992 820.22L414.952 820.86C414.992 818.727 414.578 817.147 413.712 816.12C412.845 815.093 411.338 814.58 409.192 814.58C407.712 814.58 406.458 814.913 405.432 815.58C404.418 816.247 403.705 817.3 403.292 818.74L400.432 817.9C400.925 815.967 401.918 814.467 403.412 813.4C404.905 812.333 406.845 811.8 409.232 811.8C411.205 811.8 412.878 812.173 414.252 812.92C415.638 813.653 416.618 814.72 417.192 816.12C417.458 816.747 417.632 817.447 417.712 818.22C417.792 818.993 417.832 819.78 417.832 820.58V834H415.212V828.58L415.972 828.9C415.238 830.753 414.098 832.167 412.552 833.14C411.005 834.113 409.152 834.6 406.992 834.6ZM407.332 832.06C408.705 832.06 409.905 831.813 410.932 831.32C411.958 830.827 412.785 830.153 413.412 829.3C414.038 828.433 414.445 827.46 414.632 826.38C414.792 825.687 414.878 824.927 414.892 824.1C414.905 823.26 414.912 822.633 414.912 822.22L416.032 822.8C415.032 822.933 413.945 823.067 412.772 823.2C411.612 823.333 410.465 823.487 409.332 823.66C408.212 823.833 407.198 824.04 406.292 824.28C405.678 824.453 405.085 824.7 404.512 825.02C403.938 825.327 403.465 825.74 403.092 826.26C402.732 826.78 402.552 827.427 402.552 828.2C402.552 828.827 402.705 829.433 403.012 830.02C403.332 830.607 403.838 831.093 404.532 831.48C405.238 831.867 406.172 832.06 407.332 832.06ZM434.798 834C433.585 834.253 432.385 834.353 431.198 834.3C430.025 834.247 428.972 833.993 428.038 833.54C427.118 833.087 426.418 832.38 425.938 831.42C425.552 830.62 425.338 829.813 425.298 829C425.272 828.173 425.258 827.233 425.258 826.18V806.4H428.178V826.06C428.178 826.967 428.185 827.727 428.198 828.34C428.225 828.94 428.365 829.473 428.618 829.94C429.098 830.833 429.858 831.367 430.898 831.54C431.952 831.713 433.252 831.673 434.798 831.42V834ZM420.638 814.92V812.4H434.798V814.92H420.638ZM447.413 834.6C445.306 834.6 443.479 834.133 441.933 833.2C440.399 832.267 439.206 830.953 438.353 829.26C437.499 827.567 437.073 825.58 437.073 823.3C437.073 820.94 437.493 818.9 438.333 817.18C439.173 815.46 440.353 814.133 441.873 813.2C443.406 812.267 445.213 811.8 447.293 811.8C449.426 811.8 451.246 812.293 452.753 813.28C454.259 814.253 455.399 815.653 456.173 817.48C456.946 819.307 457.299 821.487 457.233 824.02H454.233V822.98C454.179 820.18 453.573 818.067 452.413 816.64C451.266 815.213 449.586 814.5 447.373 814.5C445.053 814.5 443.273 815.253 442.033 816.76C440.806 818.267 440.193 820.413 440.193 823.2C440.193 825.92 440.806 828.033 442.033 829.54C443.273 831.033 445.026 831.78 447.293 831.78C448.839 831.78 450.186 831.427 451.333 830.72C452.493 830 453.406 828.967 454.073 827.62L456.813 828.68C455.959 830.56 454.699 832.02 453.033 833.06C451.379 834.087 449.506 834.6 447.413 834.6ZM439.153 824.02V821.56H455.653V824.02H439.153ZM472.759 843.6L476.939 832.26L476.999 835.62L467.539 812.4H470.659L478.419 831.82H477.139L484.299 812.4H487.299L475.699 843.6H472.759ZM499.011 834.6C496.865 834.6 495.031 834.113 493.511 833.14C491.991 832.167 490.825 830.82 490.011 829.1C489.198 827.38 488.791 825.407 488.791 823.18C488.791 820.913 489.205 818.927 490.031 817.22C490.858 815.513 492.031 814.187 493.551 813.24C495.085 812.28 496.905 811.8 499.011 811.8C501.171 811.8 503.011 812.287 504.531 813.26C506.065 814.22 507.231 815.56 508.031 817.28C508.845 818.987 509.251 820.953 509.251 823.18C509.251 825.447 508.845 827.44 508.031 829.16C507.218 830.867 506.045 832.2 504.511 833.16C502.978 834.12 501.145 834.6 499.011 834.6ZM499.011 831.78C501.411 831.78 503.198 830.987 504.371 829.4C505.545 827.8 506.131 825.727 506.131 823.18C506.131 820.567 505.538 818.487 504.351 816.94C503.178 815.393 501.398 814.62 499.011 814.62C497.398 814.62 496.065 814.987 495.011 815.72C493.971 816.44 493.191 817.447 492.671 818.74C492.165 820.02 491.911 821.5 491.911 823.18C491.911 825.78 492.511 827.867 493.711 829.44C494.911 831 496.678 831.78 499.011 831.78ZM521.923 834.54C520.63 834.54 519.497 834.34 518.523 833.94C517.563 833.54 516.743 833 516.063 832.32C515.397 831.64 514.857 830.867 514.443 830C514.03 829.12 513.73 828.193 513.543 827.22C513.357 826.233 513.263 825.253 513.263 824.28V812.4H516.223V823.42C516.223 824.607 516.337 825.707 516.563 826.72C516.79 827.733 517.15 828.62 517.643 829.38C518.15 830.127 518.797 830.707 519.583 831.12C520.383 831.533 521.35 831.74 522.483 831.74C523.523 831.74 524.437 831.56 525.223 831.2C526.023 830.84 526.69 830.327 527.223 829.66C527.77 828.98 528.183 828.16 528.463 827.2C528.743 826.227 528.883 825.133 528.883 823.92L530.963 824.38C530.963 826.593 530.577 828.453 529.803 829.96C529.03 831.467 527.963 832.607 526.603 833.38C525.243 834.153 523.683 834.54 521.923 834.54ZM529.183 834V828.68H528.883V812.4H531.823V834H529.183ZM537.413 834V812.4H540.053V817.6L539.533 816.92C539.773 816.28 540.087 815.693 540.473 815.16C540.86 814.613 541.28 814.167 541.733 813.82C542.293 813.327 542.947 812.953 543.693 812.7C544.44 812.433 545.193 812.28 545.953 812.24C546.713 812.187 547.407 812.24 548.033 812.4V815.16C547.247 814.96 546.387 814.913 545.453 815.02C544.52 815.127 543.66 815.5 542.873 816.14C542.153 816.7 541.613 817.373 541.253 818.16C540.893 818.933 540.653 819.76 540.533 820.64C540.413 821.507 540.353 822.367 540.353 823.22V834H537.413ZM560.235 808.3V805H563.175V808.3H560.235ZM560.235 834V812.4H563.175V834H560.235ZM577.551 834.6C575.538 834.6 573.818 834.1 572.391 833.1C570.964 832.087 569.871 830.72 569.111 829C568.351 827.28 567.971 825.34 567.971 823.18C567.971 821.033 568.344 819.1 569.091 817.38C569.851 815.66 570.938 814.3 572.351 813.3C573.764 812.3 575.458 811.8 577.431 811.8C579.458 811.8 581.164 812.293 582.551 813.28C583.938 814.267 584.984 815.62 585.691 817.34C586.411 819.047 586.771 820.993 586.771 823.18C586.771 825.327 586.418 827.267 585.711 829C585.004 830.72 583.964 832.087 582.591 833.1C581.218 834.1 579.538 834.6 577.551 834.6ZM577.851 831.86C579.384 831.86 580.651 831.487 581.651 830.74C582.651 829.993 583.398 828.967 583.891 827.66C584.384 826.34 584.631 824.847 584.631 823.18C584.631 821.487 584.384 819.993 583.891 818.7C583.398 817.393 582.651 816.373 581.651 815.64C580.664 814.907 579.418 814.54 577.911 814.54C576.364 814.54 575.084 814.92 574.071 815.68C573.058 816.44 572.304 817.473 571.811 818.78C571.331 820.087 571.091 821.553 571.091 823.18C571.091 824.82 571.338 826.3 571.831 827.62C572.338 828.927 573.091 829.96 574.091 830.72C575.091 831.48 576.344 831.86 577.851 831.86ZM584.631 834V817.74H584.311V805.2H587.271V834H584.631ZM602.022 834.6C599.915 834.6 598.089 834.133 596.542 833.2C595.009 832.267 593.815 830.953 592.962 829.26C592.109 827.567 591.682 825.58 591.682 823.3C591.682 820.94 592.102 818.9 592.942 817.18C593.782 815.46 594.962 814.133 596.482 813.2C598.015 812.267 599.822 811.8 601.902 811.8C604.035 811.8 605.855 812.293 607.362 813.28C608.869 814.253 610.009 815.653 610.782 817.48C611.555 819.307 611.909 821.487 611.842 824.02H608.842V822.98C608.789 820.18 608.182 818.067 607.022 816.64C605.875 815.213 604.195 814.5 601.982 814.5C599.662 814.5 597.882 815.253 596.642 816.76C595.415 818.267 594.802 820.413 594.802 823.2C594.802 825.92 595.415 828.033 596.642 829.54C597.882 831.033 599.635 831.78 601.902 831.78C603.449 831.78 604.795 831.427 605.942 830.72C607.102 830 608.015 828.967 608.682 827.62L611.422 828.68C610.569 830.56 609.309 832.02 607.642 833.06C605.989 834.087 604.115 834.6 602.022 834.6ZM593.762 824.02V821.56H610.262V824.02H593.762ZM622.07 834.6C620.443 834.6 619.077 834.307 617.97 833.72C616.877 833.133 616.057 832.353 615.51 831.38C614.963 830.407 614.69 829.347 614.69 828.2C614.69 827.027 614.923 826.027 615.39 825.2C615.87 824.36 616.517 823.673 617.33 823.14C618.157 822.607 619.11 822.2 620.19 821.92C621.283 821.653 622.49 821.42 623.81 821.22C625.143 821.007 626.443 820.827 627.71 820.68C628.99 820.52 630.11 820.367 631.07 820.22L630.03 820.86C630.07 818.727 629.657 817.147 628.79 816.12C627.923 815.093 626.417 814.58 624.27 814.58C622.79 814.58 621.537 814.913 620.51 815.58C619.497 816.247 618.783 817.3 618.37 818.74L615.51 817.9C616.003 815.967 616.997 814.467 618.49 813.4C619.983 812.333 621.923 811.8 624.31 811.8C626.283 811.8 627.957 812.173 629.33 812.92C630.717 813.653 631.697 814.72 632.27 816.12C632.537 816.747 632.71 817.447 632.79 818.22C632.87 818.993 632.91 819.78 632.91 820.58V834H630.29V828.58L631.05 828.9C630.317 830.753 629.177 832.167 627.63 833.14C626.083 834.113 624.23 834.6 622.07 834.6ZM622.41 832.06C623.783 832.06 624.983 831.813 626.01 831.32C627.037 830.827 627.863 830.153 628.49 829.3C629.117 828.433 629.523 827.46 629.71 826.38C629.87 825.687 629.957 824.927 629.97 824.1C629.983 823.26 629.99 822.633 629.99 822.22L631.11 822.8C630.11 822.933 629.023 823.067 627.85 823.2C626.69 823.333 625.543 823.487 624.41 823.66C623.29 823.833 622.277 824.04 621.37 824.28C620.757 824.453 620.163 824.7 619.59 825.02C619.017 825.327 618.543 825.74 618.17 826.26C617.81 826.78 617.63 827.427 617.63 828.2C617.63 828.827 617.783 829.433 618.09 830.02C618.41 830.607 618.917 831.093 619.61 831.48C620.317 831.867 621.25 832.06 622.41 832.06ZM646.176 834.58C643.643 834.58 641.556 834.033 639.916 832.94C638.29 831.847 637.29 830.327 636.916 828.38L639.916 827.88C640.236 829.107 640.963 830.087 642.096 830.82C643.243 831.54 644.656 831.9 646.336 831.9C647.976 831.9 649.27 831.56 650.216 830.88C651.163 830.187 651.636 829.247 651.636 828.06C651.636 827.393 651.483 826.853 651.176 826.44C650.883 826.013 650.276 825.62 649.356 825.26C648.436 824.9 647.063 824.473 645.236 823.98C643.276 823.447 641.743 822.913 640.636 822.38C639.53 821.847 638.743 821.233 638.276 820.54C637.81 819.833 637.576 818.973 637.576 817.96C637.576 816.733 637.923 815.66 638.616 814.74C639.31 813.807 640.27 813.087 641.496 812.58C642.723 812.06 644.15 811.8 645.776 811.8C647.403 811.8 648.856 812.067 650.136 812.6C651.43 813.12 652.47 813.853 653.256 814.8C654.043 815.747 654.51 816.847 654.656 818.1L651.656 818.64C651.456 817.373 650.823 816.373 649.756 815.64C648.703 814.893 647.363 814.507 645.736 814.48C644.203 814.44 642.956 814.733 641.996 815.36C641.036 815.973 640.556 816.793 640.556 817.82C640.556 818.393 640.73 818.887 641.076 819.3C641.423 819.7 642.05 820.08 642.956 820.44C643.876 820.8 645.183 821.193 646.876 821.62C648.863 822.127 650.423 822.66 651.556 823.22C652.69 823.78 653.496 824.44 653.976 825.2C654.456 825.96 654.696 826.9 654.696 828.02C654.696 830.06 653.936 831.667 652.416 832.84C650.91 834 648.83 834.58 646.176 834.58ZM669.28 834V810.8C669.28 810.24 669.307 809.687 669.36 809.14C669.427 808.593 669.553 808.073 669.74 807.58C669.927 807.073 670.22 806.607 670.62 806.18C671.06 805.7 671.54 805.353 672.06 805.14C672.58 804.913 673.12 804.767 673.68 804.7C674.253 804.633 674.813 804.6 675.36 804.6H678.12V807.08H675.56C674.44 807.08 673.6 807.353 673.04 807.9C672.493 808.447 672.22 809.307 672.22 810.48V834H669.28ZM665.54 814.92V812.4H678.12V814.92H665.54ZM681.32 834V812.4H683.96V817.6L683.44 816.92C683.68 816.28 683.993 815.693 684.38 815.16C684.766 814.613 685.186 814.167 685.64 813.82C686.2 813.327 686.853 812.953 687.6 812.7C688.346 812.433 689.1 812.28 689.86 812.24C690.62 812.187 691.313 812.24 691.94 812.4V815.16C691.153 814.96 690.293 814.913 689.36 815.02C688.426 815.127 687.566 815.5 686.78 816.14C686.06 816.7 685.52 817.373 685.16 818.16C684.8 818.933 684.56 819.76 684.44 820.64C684.32 821.507 684.26 822.367 684.26 823.22V834H681.32ZM704.363 834.6C702.216 834.6 700.383 834.113 698.863 833.14C697.343 832.167 696.176 830.82 695.363 829.1C694.55 827.38 694.143 825.407 694.143 823.18C694.143 820.913 694.556 818.927 695.383 817.22C696.21 815.513 697.383 814.187 698.903 813.24C700.436 812.28 702.256 811.8 704.363 811.8C706.523 811.8 708.363 812.287 709.883 813.26C711.416 814.22 712.583 815.56 713.383 817.28C714.196 818.987 714.603 820.953 714.603 823.18C714.603 825.447 714.196 827.44 713.383 829.16C712.57 830.867 711.396 832.2 709.863 833.16C708.33 834.12 706.496 834.6 704.363 834.6ZM704.363 831.78C706.763 831.78 708.55 830.987 709.723 829.4C710.896 827.8 711.483 825.727 711.483 823.18C711.483 820.567 710.89 818.487 709.703 816.94C708.53 815.393 706.75 814.62 704.363 814.62C702.75 814.62 701.416 814.987 700.363 815.72C699.323 816.44 698.543 817.447 698.023 818.74C697.516 820.02 697.263 821.5 697.263 823.18C697.263 825.78 697.863 827.867 699.063 829.44C700.263 831 702.03 831.78 704.363 831.78ZM744.775 834L744.795 819.82C744.795 818.153 744.328 816.847 743.395 815.9C742.475 814.94 741.302 814.46 739.875 814.46C739.062 814.46 738.268 814.647 737.495 815.02C736.722 815.393 736.082 815.993 735.575 816.82C735.082 817.647 734.835 818.727 734.835 820.06L733.095 819.56C733.055 818.013 733.355 816.66 733.995 815.5C734.648 814.34 735.542 813.44 736.675 812.8C737.822 812.147 739.115 811.82 740.555 811.82C742.728 811.82 744.468 812.493 745.775 813.84C747.082 815.173 747.735 816.98 747.735 819.26L747.715 834H744.775ZM718.995 834V812.4H721.635V817.72H721.955V834H718.995ZM731.915 834L731.935 820.02C731.935 818.3 731.475 816.947 730.555 815.96C729.648 814.96 728.448 814.46 726.955 814.46C725.462 814.46 724.255 814.973 723.335 816C722.415 817.013 721.955 818.367 721.955 820.06L720.195 819.1C720.195 817.713 720.522 816.473 721.175 815.38C721.828 814.273 722.722 813.407 723.855 812.78C724.988 812.14 726.275 811.82 727.715 811.82C729.088 811.82 730.308 812.113 731.375 812.7C732.455 813.287 733.302 814.14 733.915 815.26C734.528 816.38 734.835 817.74 734.835 819.34L734.815 834H731.915ZM346.202 889.6C344.189 889.6 342.376 889.267 340.762 888.6C339.162 887.92 337.836 886.96 336.782 885.72C335.742 884.48 335.062 883.007 334.742 881.3L337.742 880.8C338.222 882.667 339.236 884.133 340.782 885.2C342.329 886.253 344.176 886.78 346.322 886.78C347.736 886.78 349.002 886.56 350.122 886.12C351.242 885.667 352.122 885.027 352.762 884.2C353.402 883.373 353.722 882.393 353.722 881.26C353.722 880.513 353.589 879.88 353.322 879.36C353.056 878.827 352.702 878.387 352.262 878.04C351.822 877.693 351.342 877.407 350.822 877.18C350.302 876.94 349.796 876.747 349.302 876.6L342.002 874.42C341.122 874.167 340.309 873.847 339.562 873.46C338.816 873.06 338.162 872.587 337.602 872.04C337.056 871.48 336.629 870.827 336.322 870.08C336.016 869.333 335.862 868.48 335.862 867.52C335.862 865.893 336.289 864.487 337.142 863.3C337.996 862.113 339.162 861.2 340.642 860.56C342.122 859.92 343.809 859.607 345.702 859.62C347.622 859.62 349.336 859.96 350.842 860.64C352.362 861.32 353.616 862.293 354.602 863.56C355.589 864.813 356.242 866.3 356.562 868.02L353.482 868.58C353.282 867.327 352.822 866.24 352.102 865.32C351.382 864.4 350.462 863.693 349.342 863.2C348.236 862.693 347.016 862.433 345.682 862.42C344.389 862.42 343.236 862.64 342.222 863.08C341.222 863.507 340.429 864.093 339.842 864.84C339.256 865.587 338.962 866.44 338.962 867.4C338.962 868.373 339.229 869.153 339.762 869.74C340.309 870.327 340.976 870.787 341.762 871.12C342.562 871.453 343.336 871.727 344.082 871.94L349.722 873.6C350.309 873.76 350.996 873.993 351.782 874.3C352.582 874.593 353.356 875.02 354.102 875.58C354.862 876.127 355.489 876.847 355.982 877.74C356.476 878.633 356.722 879.767 356.722 881.14C356.722 882.473 356.456 883.667 355.922 884.72C355.402 885.773 354.662 886.66 353.702 887.38C352.756 888.1 351.642 888.647 350.362 889.02C349.096 889.407 347.709 889.6 346.202 889.6ZM372.611 889C371.397 889.253 370.197 889.353 369.011 889.3C367.837 889.247 366.784 888.993 365.851 888.54C364.931 888.087 364.231 887.38 363.751 886.42C363.364 885.62 363.151 884.813 363.111 884C363.084 883.173 363.071 882.233 363.071 881.18V861.4H365.991V881.06C365.991 881.967 365.997 882.727 366.011 883.34C366.037 883.94 366.177 884.473 366.431 884.94C366.911 885.833 367.671 886.367 368.711 886.54C369.764 886.713 371.064 886.673 372.611 886.42V889ZM358.451 869.92V867.4H372.611V869.92H358.451ZM383.046 889.6C381.42 889.6 380.053 889.307 378.946 888.72C377.853 888.133 377.033 887.353 376.486 886.38C375.94 885.407 375.666 884.347 375.666 883.2C375.666 882.027 375.9 881.027 376.366 880.2C376.846 879.36 377.493 878.673 378.306 878.14C379.133 877.607 380.086 877.2 381.166 876.92C382.26 876.653 383.466 876.42 384.786 876.22C386.12 876.007 387.42 875.827 388.686 875.68C389.966 875.52 391.086 875.367 392.046 875.22L391.006 875.86C391.046 873.727 390.633 872.147 389.766 871.12C388.9 870.093 387.393 869.58 385.246 869.58C383.766 869.58 382.513 869.913 381.486 870.58C380.473 871.247 379.76 872.3 379.346 873.74L376.486 872.9C376.98 870.967 377.973 869.467 379.466 868.4C380.96 867.333 382.9 866.8 385.286 866.8C387.26 866.8 388.933 867.173 390.306 867.92C391.693 868.653 392.673 869.72 393.246 871.12C393.513 871.747 393.686 872.447 393.766 873.22C393.846 873.993 393.886 874.78 393.886 875.58V889H391.266V883.58L392.026 883.9C391.293 885.753 390.153 887.167 388.606 888.14C387.06 889.113 385.206 889.6 383.046 889.6ZM383.386 887.06C384.76 887.06 385.96 886.813 386.986 886.32C388.013 885.827 388.84 885.153 389.466 884.3C390.093 883.433 390.5 882.46 390.686 881.38C390.846 880.687 390.933 879.927 390.946 879.1C390.96 878.26 390.966 877.633 390.966 877.22L392.086 877.8C391.086 877.933 390 878.067 388.826 878.2C387.666 878.333 386.52 878.487 385.386 878.66C384.266 878.833 383.253 879.04 382.346 879.28C381.733 879.453 381.14 879.7 380.566 880.02C379.993 880.327 379.52 880.74 379.146 881.26C378.786 881.78 378.606 882.427 378.606 883.2C378.606 883.827 378.76 884.433 379.066 885.02C379.386 885.607 379.893 886.093 380.586 886.48C381.293 886.867 382.226 887.06 383.386 887.06ZM399.093 889V867.4H401.733V872.6L401.213 871.92C401.453 871.28 401.766 870.693 402.153 870.16C402.54 869.613 402.96 869.167 403.413 868.82C403.973 868.327 404.626 867.953 405.373 867.7C406.12 867.433 406.873 867.28 407.633 867.24C408.393 867.187 409.086 867.24 409.713 867.4V870.16C408.926 869.96 408.066 869.913 407.133 870.02C406.2 870.127 405.34 870.5 404.553 871.14C403.833 871.7 403.293 872.373 402.933 873.16C402.573 873.933 402.333 874.76 402.213 875.64C402.093 876.507 402.033 877.367 402.033 878.22V889H399.093ZM425.267 889C424.054 889.253 422.854 889.353 421.667 889.3C420.494 889.247 419.44 888.993 418.507 888.54C417.587 888.087 416.887 887.38 416.407 886.42C416.02 885.62 415.807 884.813 415.767 884C415.74 883.173 415.727 882.233 415.727 881.18V861.4H418.647V881.06C418.647 881.967 418.654 882.727 418.667 883.34C418.694 883.94 418.834 884.473 419.087 884.94C419.567 885.833 420.327 886.367 421.367 886.54C422.42 886.713 423.72 886.673 425.267 886.42V889ZM411.107 869.92V867.4H425.267V869.92H411.107ZM449.29 889C448.077 889.253 446.877 889.353 445.69 889.3C444.517 889.247 443.464 888.993 442.53 888.54C441.61 888.087 440.91 887.38 440.43 886.42C440.044 885.62 439.83 884.813 439.79 884C439.764 883.173 439.75 882.233 439.75 881.18V861.4H442.67V881.06C442.67 881.967 442.677 882.727 442.69 883.34C442.717 883.94 442.857 884.473 443.11 884.94C443.59 885.833 444.35 886.367 445.39 886.54C446.444 886.713 447.744 886.673 449.29 886.42V889ZM435.13 869.92V867.4H449.29V869.92H435.13ZM461.785 889.6C459.638 889.6 457.805 889.113 456.285 888.14C454.765 887.167 453.598 885.82 452.785 884.1C451.972 882.38 451.565 880.407 451.565 878.18C451.565 875.913 451.978 873.927 452.805 872.22C453.632 870.513 454.805 869.187 456.325 868.24C457.858 867.28 459.678 866.8 461.785 866.8C463.945 866.8 465.785 867.287 467.305 868.26C468.838 869.22 470.005 870.56 470.805 872.28C471.618 873.987 472.025 875.953 472.025 878.18C472.025 880.447 471.618 882.44 470.805 884.16C469.992 885.867 468.818 887.2 467.285 888.16C465.752 889.12 463.918 889.6 461.785 889.6ZM461.785 886.78C464.185 886.78 465.972 885.987 467.145 884.4C468.318 882.8 468.905 880.727 468.905 878.18C468.905 875.567 468.312 873.487 467.125 871.94C465.952 870.393 464.172 869.62 461.785 869.62C460.172 869.62 458.838 869.987 457.785 870.72C456.745 871.44 455.965 872.447 455.445 873.74C454.938 875.02 454.685 876.5 454.685 878.18C454.685 880.78 455.285 882.867 456.485 884.44C457.685 886 459.452 886.78 461.785 886.78ZM486.585 889V865.8C486.585 865.24 486.611 864.687 486.665 864.14C486.731 863.593 486.858 863.073 487.045 862.58C487.231 862.073 487.525 861.607 487.925 861.18C488.365 860.7 488.845 860.353 489.365 860.14C489.885 859.913 490.425 859.767 490.985 859.7C491.558 859.633 492.118 859.6 492.665 859.6H495.425V862.08H492.865C491.745 862.08 490.905 862.353 490.345 862.9C489.798 863.447 489.525 864.307 489.525 865.48V889H486.585ZM482.845 869.92V867.4H495.425V869.92H482.845ZM499.625 863.3V860H502.565V863.3H499.625ZM499.625 889V867.4H502.565V889H499.625ZM524.146 889V877.98C524.146 876.78 524.033 875.68 523.806 874.68C523.579 873.667 523.213 872.787 522.706 872.04C522.213 871.28 521.566 870.693 520.766 870.28C519.979 869.867 519.019 869.66 517.886 869.66C516.846 869.66 515.926 869.84 515.126 870.2C514.339 870.56 513.673 871.08 513.126 871.76C512.593 872.427 512.186 873.24 511.906 874.2C511.626 875.16 511.486 876.253 511.486 877.48L509.406 877.02C509.406 874.807 509.793 872.947 510.566 871.44C511.339 869.933 512.406 868.793 513.766 868.02C515.126 867.247 516.686 866.86 518.446 866.86C519.739 866.86 520.866 867.06 521.826 867.46C522.799 867.86 523.619 868.4 524.286 869.08C524.966 869.76 525.513 870.54 525.926 871.42C526.339 872.287 526.639 873.213 526.826 874.2C527.013 875.173 527.106 876.147 527.106 877.12V889H524.146ZM508.526 889V867.4H511.186V872.72H511.486V889H508.526ZM532.696 863.3V860H535.636V863.3H532.696ZM532.696 889V867.4H535.636V889H532.696ZM549.692 889.58C547.159 889.58 545.072 889.033 543.432 887.94C541.805 886.847 540.805 885.327 540.432 883.38L543.432 882.88C543.752 884.107 544.479 885.087 545.612 885.82C546.759 886.54 548.172 886.9 549.852 886.9C551.492 886.9 552.785 886.56 553.732 885.88C554.679 885.187 555.152 884.247 555.152 883.06C555.152 882.393 554.999 881.853 554.692 881.44C554.399 881.013 553.792 880.62 552.872 880.26C551.952 879.9 550.579 879.473 548.752 878.98C546.792 878.447 545.259 877.913 544.152 877.38C543.045 876.847 542.259 876.233 541.792 875.54C541.325 874.833 541.092 873.973 541.092 872.96C541.092 871.733 541.439 870.66 542.132 869.74C542.825 868.807 543.785 868.087 545.012 867.58C546.239 867.06 547.665 866.8 549.292 866.8C550.919 866.8 552.372 867.067 553.652 867.6C554.945 868.12 555.985 868.853 556.772 869.8C557.559 870.747 558.025 871.847 558.172 873.1L555.172 873.64C554.972 872.373 554.339 871.373 553.272 870.64C552.219 869.893 550.879 869.507 549.252 869.48C547.719 869.44 546.472 869.733 545.512 870.36C544.552 870.973 544.072 871.793 544.072 872.82C544.072 873.393 544.245 873.887 544.592 874.3C544.939 874.7 545.565 875.08 546.472 875.44C547.392 875.8 548.699 876.193 550.392 876.62C552.379 877.127 553.939 877.66 555.072 878.22C556.205 878.78 557.012 879.44 557.492 880.2C557.972 880.96 558.212 881.9 558.212 883.02C558.212 885.06 557.452 886.667 555.932 887.84C554.425 889 552.345 889.58 549.692 889.58ZM578.248 889V877.98C578.248 876.78 578.134 875.68 577.908 874.68C577.681 873.667 577.314 872.787 576.808 872.04C576.314 871.28 575.668 870.693 574.868 870.28C574.081 869.867 573.121 869.66 571.988 869.66C570.948 869.66 570.028 869.84 569.228 870.2C568.441 870.56 567.774 871.08 567.228 871.76C566.694 872.427 566.288 873.24 566.008 874.2C565.728 875.16 565.588 876.253 565.588 877.48L563.508 877.02C563.508 874.807 563.894 872.947 564.668 871.44C565.441 869.933 566.508 868.793 567.868 868.02C569.228 867.247 570.788 866.86 572.548 866.86C573.841 866.86 574.968 867.06 575.928 867.46C576.901 867.86 577.721 868.4 578.388 869.08C579.068 869.76 579.614 870.54 580.028 871.42C580.441 872.287 580.741 873.213 580.928 874.2C581.114 875.173 581.208 876.147 581.208 877.12V889H578.248ZM562.628 889V860.2H565.288V876.46H565.588V889H562.628Z" fill="#333333"/>
<path opacity="0.5" d="M883.549 187.195H244.664V512.367H883.549V187.195Z" stroke="black" stroke-linecap="round" stroke-linejoin="round"/>
<path opacity="0.5" d="M874.976 191.562H253.242V508.013H874.976V191.562Z" stroke="black" stroke-linecap="round" stroke-linejoin="round"/>
<path opacity="0.3" d="M328.508 238.951C328.508 238.951 335.313 266.962 335.313 275.258V304.301C335.313 304.301 362.532 305.332 384.3 304.301C406.068 303.269 431.934 292.896 431.934 292.896C431.934 292.896 422.404 264.885 422.404 257.62C422.404 250.356 416.972 232.688 416.972 232.688L328.508 238.951Z" fill="white" stroke="black" stroke-linecap="round" stroke-linejoin="round"/>
<path opacity="0.3" d="M331.214 413.164C331.214 413.164 327.235 437.02 327.235 447.393C327.235 457.767 320.43 474.358 320.43 474.358C320.43 474.358 353.101 483.701 361.259 483.701C369.417 483.701 404.815 481.623 404.815 481.623L410.266 420.429C410.266 420.429 342.078 415.302 331.214 413.164Z" fill="white" stroke="black" stroke-linecap="round" stroke-linejoin="round"/>
<path opacity="0.3" d="M482.297 284.591L498.613 341.645C498.613 341.645 519.027 342.692 540.815 342.692C562.603 342.692 599.333 327.131 599.333 327.131C599.333 327.131 581.645 300.151 581.645 292.902C581.645 285.653 576.193 264.891 576.193 264.891C576.193 264.891 520.48 278.373 512.223 279.404C503.965 280.436 482.297 284.591 482.297 284.591Z" fill="white" stroke="black" stroke-linecap="round" stroke-linejoin="round"/>
<path opacity="0.3" d="M604.731 269.086C604.731 269.086 600.751 306.424 600.751 310.565C600.751 314.705 599.398 331.311 599.398 331.311C599.398 331.311 626.618 334.436 641.581 334.436C656.544 334.436 682.41 333.389 682.41 333.389C682.41 333.389 681.057 297.082 683.763 293.958C686.469 290.834 687.862 274.242 687.862 274.242C687.862 274.242 610.223 270.072 604.731 269.086Z" fill="white" stroke="black" stroke-linecap="round" stroke-linejoin="round"/>
<path opacity="0.3" d="M634.71 352.018V376.92C634.71 381.06 631.984 411.149 631.984 411.149C631.984 411.149 667.382 412.181 680.992 411.149C694.601 410.118 721.821 403.885 721.821 403.885L717.722 370.702L715.016 347.953C715.016 347.953 649.693 355.142 634.71 352.018Z" fill="white" stroke="black" stroke-linecap="round" stroke-linejoin="round"/>
<path opacity="0.3" d="M840.214 211.992L808.915 213.023H792.58V230.661C792.58 235.848 791.227 252.439 791.227 255.548C791.227 258.657 812.994 260.735 822.525 260.735H856.55L857.903 209.914L840.214 211.992Z" fill="white" stroke="black" stroke-linecap="round" stroke-linejoin="round"/>
<g opacity="0.5">
<path d="M761.281 324.023H819.799" stroke="black" stroke-linecap="round" stroke-linejoin="round"/>
<path d="M761.281 334.398H819.799" stroke="black" stroke-linecap="round" stroke-linejoin="round"/>
<path d="M761.281 344.773H819.799" stroke="black" stroke-linecap="round" stroke-linejoin="round"/>
<path d="M761.281 355.141H819.799" stroke="black" stroke-linecap="round" stroke-linejoin="round"/>
</g>
<g opacity="0.5">
<path d="M459.156 205.758H652.4" stroke="black" stroke-linecap="round" stroke-linejoin="round"/>
<path d="M459.156 216.133H652.4" stroke="black" stroke-linecap="round" stroke-linejoin="round"/>
</g>
<g opacity="0.5">
<path d="M656.477 431.898H715.015" stroke="black" stroke-linecap="round" stroke-linejoin="round"/>
<path d="M656.477 442.273H715.015" stroke="black" stroke-linecap="round" stroke-linejoin="round"/>
<path d="M656.477 452.648H715.015" stroke="black" stroke-linecap="round" stroke-linejoin="round"/>
<path d="M656.477 463.016H715.015" stroke="black" stroke-linecap="round" stroke-linejoin="round"/>
</g>
<g opacity="0.5">
<path d="M293.117 363.438H351.635" stroke="black" stroke-linecap="round" stroke-linejoin="round"/>
<path d="M293.117 373.812H351.635" stroke="black" stroke-linecap="round" stroke-linejoin="round"/>
<path d="M293.117 384.188H351.635" stroke="black" stroke-linecap="round" stroke-linejoin="round"/>
<path d="M293.117 394.555H351.635" stroke="black" stroke-linecap="round" stroke-linejoin="round"/>
</g>
<g opacity="0.5">
<path d="M705.484 232.742H764.003" stroke="black" stroke-linecap="round" stroke-linejoin="round"/>
<path d="M705.484 243.117H764.003" stroke="black" stroke-linecap="round" stroke-linejoin="round"/>
<path d="M705.484 253.492H764.003" stroke="black" stroke-linecap="round" stroke-linejoin="round"/>
<path d="M705.484 263.859H764.003" stroke="black" stroke-linecap="round" stroke-linejoin="round"/>
</g>
<path opacity="0.5" d="M491.309 331.787L457.762 339.097L466.398 344.8C450.699 352.671 417.45 366.153 395.702 352.458C366.533 334.092 374.392 318.214 374.73 317.577L372.144 316.788L369.577 315.984C369.159 316.758 359.628 335.291 392.161 355.764C399.568 360.397 408.906 362.855 418.485 362.695C438.78 362.695 459.732 353.474 470.795 347.742L481.719 354.945L491.309 331.787Z" fill="black"/>
<path opacity="0.5" d="M829.985 288.129L820.295 263.5L802.526 283.2L812.396 284.975L802.148 313.077L807.521 314.215L817.828 285.945L829.985 288.129Z" fill="black"/>
<path opacity="0.3" d="M384.301 242.069C384.301 240.836 383.821 239.63 382.921 238.605C382.022 237.579 380.744 236.78 379.248 236.309C377.753 235.838 376.107 235.715 374.52 235.957C372.933 236.199 371.476 236.794 370.334 237.667C369.191 238.54 368.413 239.652 368.1 240.862C367.787 242.072 367.952 243.326 368.574 244.465C369.196 245.604 370.247 246.576 371.594 247.259C372.942 247.942 374.525 248.305 376.143 248.302C378.308 248.298 380.383 247.64 381.913 246.471C383.442 245.303 384.301 243.72 384.301 242.069Z" fill="white" stroke="black" stroke-linecap="round" stroke-linejoin="round"/>
<path opacity="0.3" d="M534.012 281.483C534.012 280.25 533.532 279.045 532.634 278.02C531.735 276.995 530.458 276.196 528.964 275.724C527.469 275.253 525.825 275.129 524.239 275.37C522.652 275.61 521.195 276.204 520.051 277.076C518.908 277.947 518.129 279.058 517.813 280.267C517.498 281.476 517.66 282.73 518.279 283.868C518.898 285.007 519.946 285.981 521.291 286.666C522.636 287.351 524.217 287.716 525.834 287.716C526.908 287.716 527.971 287.555 528.964 287.242C529.956 286.929 530.857 286.469 531.617 285.891C532.376 285.312 532.978 284.625 533.389 283.868C533.8 283.112 534.012 282.302 534.012 281.483Z" fill="#407BFF" stroke="black" stroke-linecap="round" stroke-linejoin="round"/>
<path opacity="0.3" d="M649.697 278.374C654.203 278.374 657.855 275.59 657.855 272.156C657.855 268.721 654.203 265.938 649.697 265.938C645.192 265.938 641.539 268.721 641.539 272.156C641.539 275.59 645.192 278.374 649.697 278.374Z" fill="white" stroke="black" stroke-linecap="round" stroke-linejoin="round"/>
<path opacity="0.3" d="M685.074 358.248C685.078 357.015 684.602 355.808 683.706 354.781C682.81 353.754 681.534 352.953 680.04 352.479C678.546 352.005 676.901 351.879 675.313 352.118C673.726 352.357 672.267 352.949 671.121 353.82C669.975 354.691 669.195 355.802 668.877 357.012C668.56 358.221 668.721 359.475 669.339 360.615C669.958 361.755 671.006 362.729 672.351 363.415C673.696 364.1 675.278 364.466 676.897 364.466C679.062 364.466 681.139 363.812 682.672 362.646C684.205 361.48 685.069 359.899 685.074 358.248Z" fill="white" stroke="black" stroke-linecap="round" stroke-linejoin="round"/>
<path opacity="0.3" d="M384.301 424.632C384.301 423.398 383.821 422.192 382.921 421.167C382.022 420.142 380.744 419.343 379.248 418.871C377.753 418.4 376.107 418.278 374.52 418.519C372.933 418.761 371.476 419.356 370.334 420.229C369.191 421.103 368.413 422.215 368.1 423.425C367.787 424.635 367.952 425.889 368.574 427.027C369.196 428.166 370.247 429.139 371.594 429.822C372.942 430.505 374.525 430.868 376.143 430.865C378.308 430.861 380.383 430.202 381.913 429.034C383.442 427.865 384.301 426.282 384.301 424.632Z" fill="#407BFF" stroke="black" stroke-linecap="round" stroke-linejoin="round"/>
<path opacity="0.3" d="M825.252 218.209C829.757 218.209 833.41 215.426 833.41 211.991C833.41 208.557 829.757 205.773 825.252 205.773C820.746 205.773 817.094 208.557 817.094 211.991C817.094 215.426 820.746 218.209 825.252 218.209Z" fill="#407BFF" stroke="black" stroke-linecap="round" stroke-linejoin="round"/>
<path d="M905.183 487.477H620.969V646.005H905.183V487.477Z" fill="#263238" stroke="#263238" stroke-linecap="round" stroke-linejoin="round"/>
<path opacity="0.25" d="M891.475 495.117H634.68V638.359H891.475V495.117Z" fill="white" stroke="#263238" stroke-linecap="round" stroke-linejoin="round"/>
<path d="M790.852 639.906H739.875V670.981H790.852V639.906Z" fill="#263238" stroke="#263238" stroke-linecap="round" stroke-linejoin="round"/>
<path d="M642.297 516.688H882.598" stroke="white" stroke-linecap="round" stroke-linejoin="round"/>
<path d="M645.227 551.102H702.591" stroke="white" stroke-linecap="round" stroke-linejoin="round"/>
<path d="M681.078 563.305H713.67" stroke="white" stroke-linecap="round" stroke-linejoin="round"/>
<path d="M645.227 563.305H676.525" stroke="white" stroke-linecap="round" stroke-linejoin="round"/>
<path d="M698.688 575.516H754.102" stroke="white" stroke-linecap="round" stroke-linejoin="round"/>
<path d="M645.227 575.516H691.508" stroke="white" stroke-linecap="round" stroke-linejoin="round"/>
<path d="M645.227 587.727H678.475" stroke="white" stroke-linecap="round" stroke-linejoin="round"/>
<path d="M677.18 599.945H713.671" stroke="white" stroke-linecap="round" stroke-linejoin="round"/>
<path d="M645.227 599.945H668.049" stroke="white" stroke-linecap="round" stroke-linejoin="round"/>
<path d="M771.031 612.156H787.327" stroke="white" stroke-linecap="round" stroke-linejoin="round"/>
<path d="M669.359 612.156H761.265" stroke="white" stroke-linecap="round" stroke-linejoin="round"/>
<path d="M645.227 612.156H662.179" stroke="white" stroke-linecap="round" stroke-linejoin="round"/>
<path d="M61.9688 434.984L94.2622 670.829" stroke="#263238" stroke-linecap="round" stroke-linejoin="round"/>
<path d="M93.6036 666.484L77.1484 653.305" stroke="#263238" stroke-linecap="round" stroke-linejoin="round"/>
<path d="M82.5804 657.611C82.5457 655.409 81.8919 653.238 80.6632 651.244C79.4344 649.251 77.6591 647.481 75.4572 646.055C70.8609 642.946 46.7452 635.196 44.4371 641.672C41.9699 648.724 66.6824 662.555 82.5804 657.611Z" fill="#407BFF" stroke="#263238" stroke-linecap="round" stroke-linejoin="round"/>
<path d="M82.5831 657.615L59.6016 646.695" stroke="#263238" stroke-linecap="round" stroke-linejoin="round"/>
<path d="M82.4429 584.569L66.2266 573.438" stroke="#263238" stroke-linecap="round" stroke-linejoin="round"/>
<path d="M71.6372 577.747C71.6034 575.548 70.9519 573.381 69.7266 571.39C68.5013 569.399 66.7307 567.631 64.5338 566.206C59.9574 563.082 35.8219 555.347 33.5337 561.823C31.0465 568.86 55.7392 582.706 71.6372 577.747Z" fill="#407BFF" stroke="#263238" stroke-linecap="round" stroke-linejoin="round"/>
<path d="M71.6335 577.748L48.6719 566.844" stroke="#263238" stroke-linecap="round" stroke-linejoin="round"/>
<path d="M86.9593 619.358L70.7031 606.164" stroke="#263238" stroke-linecap="round" stroke-linejoin="round"/>
<path d="M76.1336 610.474C76.0935 608.274 75.4372 606.107 74.2087 604.116C72.9802 602.126 71.2079 600.358 69.0104 598.933C64.434 595.808 40.2984 588.074 38.0102 594.55C35.5231 601.587 60.2157 615.433 76.1336 610.474Z" fill="#407BFF" stroke="#263238" stroke-linecap="round" stroke-linejoin="round"/>
<path d="M76.1299 610.475L53.1484 599.57" stroke="#263238" stroke-linecap="round" stroke-linejoin="round"/>
<path d="M75.2214 532.914L58.9453 520.281" stroke="#263238" stroke-linecap="round" stroke-linejoin="round"/>
<path d="M64.3732 524.583C64.332 522.382 63.6754 520.212 62.4471 518.22C61.2187 516.227 59.4469 514.457 57.2499 513.027C52.6735 509.918 28.538 502.184 26.2498 508.659C23.7228 515.696 48.4553 529.528 64.3732 524.583Z" fill="#407BFF" stroke="#263238" stroke-linecap="round" stroke-linejoin="round"/>
<path d="M64.3721 524.592L41.3906 513.688" stroke="#263238" stroke-linecap="round" stroke-linejoin="round"/>
<path d="M67.3759 476.073L51.6172 466.883" stroke="#263238" stroke-linecap="round" stroke-linejoin="round"/>
<path d="M57.0512 471.193C57.0175 468.994 56.366 466.826 55.1407 464.835C53.9154 462.844 52.1447 461.077 49.9479 459.651C45.3516 456.527 21.2359 448.793 18.9477 455.268C16.4606 462.321 41.1532 476.152 57.0512 471.193Z" fill="#407BFF" stroke="#263238" stroke-linecap="round" stroke-linejoin="round"/>
<path d="M57.0475 471.186L34.0859 460.281" stroke="#263238" stroke-linecap="round" stroke-linejoin="round"/>
<path d="M92.0078 648.309L105.598 631.43" stroke="#263238" stroke-linecap="round" stroke-linejoin="round"/>
<path d="M101.439 636.501C100.885 634.343 100.943 632.119 101.609 629.98C102.274 627.84 103.533 625.834 105.299 624.095C108.94 620.319 130.45 608.929 134.449 614.92C138.767 621.426 118.352 638.851 101.439 636.501Z" fill="#407BFF" stroke="#263238" stroke-linecap="round" stroke-linejoin="round"/>
<path d="M101.445 636.502L117.622 624.945" stroke="#263238" stroke-linecap="round" stroke-linejoin="round"/>
<path d="M80.2109 562.2L93.8009 545.32" stroke="#263238" stroke-linecap="round" stroke-linejoin="round"/>
<path d="M89.6627 550.383C89.0988 548.225 89.1481 546 89.8071 543.857C90.466 541.715 91.7194 539.705 93.483 537.962C97.1242 534.186 113.957 524.738 117.957 530.713C122.294 537.204 106.556 552.689 89.6627 550.383Z" fill="#407BFF" stroke="#263238" stroke-linecap="round" stroke-linejoin="round"/>
<path d="M89.6641 550.387L110.337 535.312" stroke="#263238" stroke-linecap="round" stroke-linejoin="round"/>
<path d="M75.0391 524.348L88.6091 507.469" stroke="#263238" stroke-linecap="round" stroke-linejoin="round"/>
<path d="M84.4666 512.533C83.9098 510.376 83.9644 508.153 84.6267 506.013C85.289 503.874 86.5437 501.867 88.3068 500.127C91.948 496.351 113.457 484.961 117.456 491.027C121.794 497.458 101.32 514.883 84.4666 512.533Z" fill="#407BFF" stroke="#263238" stroke-linecap="round" stroke-linejoin="round"/>
<path d="M84.4688 512.528L105.162 497.469" stroke="#263238" stroke-linecap="round" stroke-linejoin="round"/>
<path d="M67.4375 468.872L81.0274 451.992" stroke="#263238" stroke-linecap="round" stroke-linejoin="round"/>
<path d="M76.8654 457.056C76.3083 454.896 76.3627 452.671 77.0249 450.529C77.6872 448.387 78.9421 446.377 80.7056 444.635C84.3468 440.858 105.856 429.469 109.855 435.535C114.193 441.981 93.7782 459.391 76.8654 457.056Z" fill="#407BFF" stroke="#263238" stroke-linecap="round" stroke-linejoin="round"/>
<path d="M76.8672 457.051L97.5605 441.977" stroke="#263238" stroke-linecap="round" stroke-linejoin="round"/>
<path d="M61.6285 433.399C61.0716 431.238 61.1298 429.011 61.7992 426.868C62.4686 424.725 63.7335 422.717 65.5085 420.978C69.1497 417.202 90.6588 405.813 94.6382 411.879C98.956 418.309 78.5412 435.735 61.6285 433.399Z" fill="#407BFF" stroke="#263238" stroke-linecap="round" stroke-linejoin="round"/>
<path d="M61.625 433.395L82.3183 418.32" stroke="#263238" stroke-linecap="round" stroke-linejoin="round"/>
<path d="M62.8217 434.047C59.9479 434.243 57.0523 433.97 54.328 433.246C51.6038 432.521 49.1135 431.363 47.0232 429.847C42.4866 426.677 29.9115 409.191 38.1291 406.779C47.063 404.171 67.6568 421.475 62.8217 434.047Z" fill="#407BFF" stroke="#263238" stroke-linecap="round" stroke-linejoin="round"/>
<path d="M62.8179 434.048L45.3281 416.789" stroke="#263238" stroke-linecap="round" stroke-linejoin="round"/>
<path d="M120.984 357.445V671.439" stroke="#263238" stroke-linecap="round" stroke-linejoin="round"/>
<path d="M165.888 474.617L138.867 670.454" stroke="#263238" stroke-linecap="round" stroke-linejoin="round"/>
<path d="M146.052 621.436L132.602 612.867" stroke="#263238" stroke-linecap="round" stroke-linejoin="round"/>
<path d="M136.783 615.837C137.347 613.679 137.298 611.453 136.639 609.311C135.98 607.168 134.726 605.158 132.963 603.416C129.322 599.64 107.793 588.25 103.793 594.316C99.4557 600.762 119.89 618.187 136.783 615.837Z" fill="#407BFF" stroke="#263238" stroke-linecap="round" stroke-linejoin="round"/>
<path d="M136.777 615.841L117.258 601.555" stroke="#263238" stroke-linecap="round" stroke-linejoin="round"/>
<path d="M141.041 657.597L128.188 643.508" stroke="#263238" stroke-linecap="round" stroke-linejoin="round"/>
<path d="M132.342 648.57C132.908 646.403 132.858 644.17 132.196 642.019C131.533 639.869 130.274 637.851 128.502 636.103C124.861 632.327 103.332 620.938 99.3324 627.004C94.9948 633.495 115.429 650.92 132.342 648.57Z" fill="#407BFF" stroke="#263238" stroke-linecap="round" stroke-linejoin="round"/>
<path d="M132.344 648.575L112.805 634.289" stroke="#263238" stroke-linecap="round" stroke-linejoin="round"/>
<path d="M152.856 569.014L139.883 557.609" stroke="#263238" stroke-linecap="round" stroke-linejoin="round"/>
<path d="M144.024 562.671C144.586 560.512 144.535 558.286 143.872 556.143C143.21 554 141.952 551.991 140.184 550.25C136.543 546.489 115.034 535.085 111.034 541.151C106.697 547.612 127.191 565.022 144.024 562.671Z" fill="#407BFF" stroke="#263238" stroke-linecap="round" stroke-linejoin="round"/>
<path d="M144.019 562.669L124.5 548.398" stroke="#263238" stroke-linecap="round" stroke-linejoin="round"/>
<path d="M159.664 519.035L147.148 504.203" stroke="#263238" stroke-linecap="round" stroke-linejoin="round"/>
<path d="M151.303 509.275C151.86 507.118 151.805 504.895 151.143 502.755C150.481 500.616 149.226 498.609 147.463 496.869C143.822 493.093 122.293 481.703 118.293 487.77C113.956 494.215 134.39 511.625 151.303 509.275Z" fill="#407BFF" stroke="#263238" stroke-linecap="round" stroke-linejoin="round"/>
<path d="M151.305 509.271L131.766 495" stroke="#263238" stroke-linecap="round" stroke-linejoin="round"/>
<path d="M149.375 601.963L167.223 587.57" stroke="#263238" stroke-linecap="round" stroke-linejoin="round"/>
<path d="M161.812 591.885C161.846 589.686 162.498 587.518 163.723 585.527C164.948 583.536 166.719 581.769 168.916 580.343C173.492 577.219 197.608 569.469 199.916 575.945C202.403 583.028 177.711 596.829 161.812 591.885Z" fill="#407BFF" stroke="#263238" stroke-linecap="round" stroke-linejoin="round"/>
<path d="M161.812 591.879L186.127 580.383" stroke="#263238" stroke-linecap="round" stroke-linejoin="round"/>
<path d="M154.531 564.112L172.379 549.734" stroke="#263238" stroke-linecap="round" stroke-linejoin="round"/>
<path d="M166.984 554.04C167.017 551.839 167.667 549.669 168.893 547.675C170.118 545.682 171.889 543.912 174.088 542.484C178.664 539.36 202.78 531.61 205.088 538.086C207.555 545.108 182.902 558.984 166.984 554.04Z" fill="#407BFF" stroke="#263238" stroke-linecap="round" stroke-linejoin="round"/>
<path d="M166.961 554.043L191.276 542.547" stroke="#263238" stroke-linecap="round" stroke-linejoin="round"/>
<path d="M161.891 505.799L179.938 494.242" stroke="#263238" stroke-linecap="round" stroke-linejoin="round"/>
<path d="M174.523 498.549C174.556 496.351 175.205 494.184 176.427 492.194C177.648 490.203 179.415 488.435 181.607 487.007C186.203 483.883 210.319 476.133 212.607 482.609C215.114 489.646 190.421 503.493 174.523 498.549Z" fill="#407BFF" stroke="#263238" stroke-linecap="round" stroke-linejoin="round"/>
<path d="M174.523 498.55L198.818 487.055" stroke="#263238" stroke-linecap="round" stroke-linejoin="round"/>
<path d="M165.992 473.009C166.024 470.808 166.675 468.637 167.9 466.644C169.126 464.651 170.897 462.88 173.096 461.453C177.672 458.328 201.788 450.579 204.096 457.055C206.583 464.107 181.89 477.953 165.992 473.009Z" fill="#407BFF" stroke="#263238" stroke-linecap="round" stroke-linejoin="round"/>
<path d="M165.992 473.011L190.307 461.5" stroke="#263238" stroke-linecap="round" stroke-linejoin="round"/>
<path d="M166.982 473.825C164.115 473.57 161.352 472.849 158.881 471.711C156.409 470.573 154.287 469.044 152.656 467.228C149.055 463.437 141.474 444.328 150.169 443.266C159.62 442.113 175.101 462.284 166.982 473.825Z" fill="#407BFF" stroke="#263238" stroke-linecap="round" stroke-linejoin="round"/>
<path d="M166.987 473.827L154.531 454.188" stroke="#263238" stroke-linecap="round" stroke-linejoin="round"/>
<path d="M120.326 665.966L105.562 650.922" stroke="#263238" stroke-linecap="round" stroke-linejoin="round"/>
<path d="M110.375 655.619C110.638 653.429 110.283 651.22 109.332 649.143C108.381 647.066 106.857 645.168 104.863 643.578C100.725 640.105 77.7829 630.505 74.6391 636.768C71.1968 643.578 93.8799 659.29 110.375 655.619Z" fill="#407BFF" stroke="#263238" stroke-linecap="round" stroke-linejoin="round"/>
<path d="M110.378 655.617L89.0078 642.953" stroke="#263238" stroke-linecap="round" stroke-linejoin="round"/>
<path d="M120.844 593.382L105.562 582.523" stroke="#263238" stroke-linecap="round" stroke-linejoin="round"/>
<path d="M110.375 587.237C110.638 585.046 110.283 582.838 109.332 580.76C108.381 578.683 106.857 576.785 104.863 575.195C100.725 571.722 77.7829 562.122 74.6391 568.386C71.1968 575.195 93.8799 590.907 110.375 587.237Z" fill="#407BFF" stroke="#263238" stroke-linecap="round" stroke-linejoin="round"/>
<path d="M110.378 587.242L89.0078 574.578" stroke="#263238" stroke-linecap="round" stroke-linejoin="round"/>
<path d="M121.361 517.946L105.562 502.234" stroke="#263238" stroke-linecap="round" stroke-linejoin="round"/>
<path d="M110.375 506.955C110.639 504.761 110.283 502.551 109.333 500.471C108.382 498.391 106.858 496.491 104.863 494.898C100.725 491.44 77.7829 481.84 74.6391 488.088C71.1968 494.898 93.8799 510.625 110.375 506.955Z" fill="#407BFF" stroke="#263238" stroke-linecap="round" stroke-linejoin="round"/>
<path d="M110.378 506.953L89.0078 494.289" stroke="#263238" stroke-linecap="round" stroke-linejoin="round"/>
<path d="M120.326 458.935L105.562 448.789" stroke="#263238" stroke-linecap="round" stroke-linejoin="round"/>
<path d="M110.375 453.505C110.653 451.3 110.305 449.075 109.354 446.981C108.403 444.888 106.871 442.975 104.863 441.373C100.725 437.915 77.7829 428.3 74.6391 434.563C71.1968 441.449 93.8799 457.145 110.375 453.505Z" fill="#407BFF" stroke="#263238" stroke-linecap="round" stroke-linejoin="round"/>
<path d="M110.378 453.507L89.0078 440.828" stroke="#263238" stroke-linecap="round" stroke-linejoin="round"/>
<path d="M121.18 405.467L105.859 396.898" stroke="#263238" stroke-linecap="round" stroke-linejoin="round"/>
<path d="M110.375 399.822C110.639 397.629 110.283 395.418 109.333 393.338C108.382 391.259 106.858 389.358 104.863 387.765C100.725 384.307 77.7829 374.707 74.6391 380.955C71.1968 387.765 93.8799 403.492 110.375 399.822Z" fill="#407BFF" stroke="#263238" stroke-linecap="round" stroke-linejoin="round"/>
<path d="M110.378 399.82L89.0078 387.156" stroke="#263238" stroke-linecap="round" stroke-linejoin="round"/>
<path d="M121.023 578.743L136.822 563.031" stroke="#263238" stroke-linecap="round" stroke-linejoin="round"/>
<path d="M132.003 567.751C131.745 565.563 132.103 563.358 133.054 561.284C134.004 559.209 135.525 557.314 137.515 555.724C141.634 552.266 164.595 542.651 167.739 548.915C171.181 555.724 148.498 571.406 132.003 567.751Z" fill="#407BFF" stroke="#263238" stroke-linecap="round" stroke-linejoin="round"/>
<path d="M132.008 567.752L154.631 554.391" stroke="#263238" stroke-linecap="round" stroke-linejoin="round"/>
<path d="M121.023 525.063L136.822 509.352" stroke="#263238" stroke-linecap="round" stroke-linejoin="round"/>
<path d="M132.006 514.064C131.743 511.871 132.098 509.66 133.049 507.58C133.999 505.501 135.523 503.6 137.518 502.007C141.637 498.549 164.598 488.949 167.742 495.198C171.184 502.007 148.501 517.81 132.006 514.064Z" fill="#407BFF" stroke="#263238" stroke-linecap="round" stroke-linejoin="round"/>
<path d="M132.008 514.065L154.631 500.719" stroke="#263238" stroke-linecap="round" stroke-linejoin="round"/>
<path d="M121.023 454.11L136.822 438.383" stroke="#263238" stroke-linecap="round" stroke-linejoin="round"/>
<path d="M132.006 443.104C131.743 440.913 132.098 438.705 133.049 436.627C134 434.55 135.524 432.653 137.518 431.062C141.637 427.589 164.598 417.989 167.742 424.253C171.184 431.062 148.501 446.774 132.006 443.104Z" fill="#407BFF" stroke="#263238" stroke-linecap="round" stroke-linejoin="round"/>
<path d="M132.008 443.104L154.631 429.758" stroke="#263238" stroke-linecap="round" stroke-linejoin="round"/>
<path d="M121.695 392.877L137.195 383.656" stroke="#263238" stroke-linecap="round" stroke-linejoin="round"/>
<path d="M132.001 387.382C131.72 385.177 132.067 382.951 133.018 380.857C133.969 378.763 135.502 376.85 137.513 375.25C141.631 371.777 164.593 362.177 167.737 368.44C171.179 375.25 148.496 390.992 132.001 387.382Z" fill="#407BFF" stroke="#263238" stroke-linecap="round" stroke-linejoin="round"/>
<path d="M132.008 387.323L154.631 373.977" stroke="#263238" stroke-linecap="round" stroke-linejoin="round"/>
<path d="M120.063 362.591C119.783 360.387 120.129 358.163 121.076 356.069C122.024 353.976 123.551 352.062 125.555 350.459C129.693 347.001 152.635 337.386 155.799 343.649C159.241 350.535 136.558 366.261 120.063 362.591Z" fill="#407BFF" stroke="#263238" stroke-linecap="round" stroke-linejoin="round"/>
<path d="M120.062 362.588L142.686 349.227" stroke="#263238" stroke-linecap="round" stroke-linejoin="round"/>
<path d="M121.217 363.331C118.329 363.3 115.484 362.798 112.872 361.859C110.26 360.92 107.942 359.565 106.075 357.886C101.976 354.398 91.8483 336.002 100.344 334.258C109.557 332.362 127.684 351.213 121.217 363.331Z" fill="#407BFF" stroke="#263238" stroke-linecap="round" stroke-linejoin="round"/>
<path d="M121.18 363.336L106.117 344.773" stroke="#263238" stroke-linecap="round" stroke-linejoin="round"/>
<path d="M851.453 672H907.166" stroke="#263238" stroke-linecap="round" stroke-linejoin="round"/>
<path d="M34.3281 672H829.567" stroke="#263238" stroke-linecap="round" stroke-linejoin="round"/>
<path d="M506.538 74.7031C506.541 67.3787 504.229 60.1616 499.798 53.6623C495.367 47.163 488.948 41.5728 481.083 37.3645C473.218 33.1563 464.139 30.4539 454.613 29.4859C445.088 28.518 435.397 29.313 426.361 31.8036C417.324 34.2943 409.207 38.4074 402.697 43.7949C396.187 49.1824 391.475 55.6857 388.96 62.7548C386.445 69.8239 386.201 77.2507 388.249 84.4069C390.297 91.563 394.575 98.238 400.724 103.867C409.541 111.929 414.365 122.095 414.353 132.591V138.84H479.04V132.591C479.029 122.116 483.846 111.971 492.65 103.928C501.637 95.7309 506.553 85.3853 506.538 74.7031Z" fill="white" stroke="#263238" stroke-width="2" stroke-linecap="round" stroke-linejoin="round"/>
<path d="M479.038 138.828H414.352V151.021H479.038V138.828Z" fill="white" stroke="#263238" stroke-width="2" stroke-linecap="round" stroke-linejoin="round"/>
<path d="M414.349 151.047H479.036V156.082C479.036 157.984 478.044 159.809 476.279 161.154C474.514 162.5 472.121 163.255 469.624 163.255H423.661C421.165 163.255 418.772 162.5 417.007 161.154C415.242 159.809 414.25 157.984 414.25 156.082V151.047H414.349Z" fill="white" stroke="#263238" stroke-width="2" stroke-linecap="round" stroke-linejoin="round"/>
<path d="M422.508 163.234H470.858V165.706C470.858 166.983 470.529 168.247 469.888 169.427C469.247 170.606 468.307 171.678 467.123 172.58C465.939 173.483 464.532 174.199 462.985 174.688C461.438 175.176 459.779 175.428 458.104 175.428H435.262C431.879 175.428 428.635 174.404 426.243 172.58C423.852 170.757 422.508 168.285 422.508 165.706V163.234Z" fill="white" stroke="#263238" stroke-width="2" stroke-linecap="round" stroke-linejoin="round"/>
<path d="M515.008 74.9297H542.426" stroke="#263238" stroke-width="2" stroke-linecap="round" stroke-linejoin="round"/>
<path d="M348.391 74.9297H376.147" stroke="#263238" stroke-width="2" stroke-linecap="round" stroke-linejoin="round"/>
<path d="M445.414 21.9441V1" stroke="#263238" stroke-width="2" stroke-linecap="round" stroke-linejoin="round"/>
<path d="M495.094 37.0638L514.016 22.6562" stroke="#263238" stroke-width="2" stroke-linecap="round" stroke-linejoin="round"/>
<path d="M376.805 127.229L396.006 112.594" stroke="#263238" stroke-width="2" stroke-linecap="round" stroke-linejoin="round"/>
<path d="M395.19 36.6543L376.805 22.6562" stroke="#263238" stroke-width="2" stroke-linecap="round" stroke-linejoin="round"/>
<path d="M514.017 127.226L495.711 113.289" stroke="#263238" stroke-width="2" stroke-linecap="round" stroke-linejoin="round"/>
<path d="M662.036 271.893C662.036 271.893 648.545 249.675 646.914 247.628C645.282 245.58 643.67 233.22 644.765 229.52C645.859 225.819 659.33 213.065 659.33 213.065C659.33 213.065 660.941 186.752 663.11 179.7C665.279 172.648 664.184 166.536 669.577 165.292C674.969 164.048 676.6 164.473 677.138 169.842C677.675 175.211 676.063 187.935 676.063 189.163C676.063 190.392 678.749 209.319 678.749 209.319C678.749 209.319 704.119 229.034 706.825 231.127C709.531 233.22 713.828 237.709 709.511 248.401C706.899 254.848 702.684 260.852 697.095 266.084L699.264 274.319L662.036 276.367V271.893Z" fill="white" stroke="#263238" stroke-linecap="round" stroke-linejoin="round"/>
<path d="M659.332 261.197C659.332 261.197 646.379 250.505 642.598 244.332C638.818 238.16 639.912 223.358 641.524 221.295C643.136 219.233 656.089 214.304 659.332 213.06C662.575 211.817 684.701 210.603 689.556 208.51C694.411 206.417 699.803 212.62 692.8 217.974C685.796 223.327 664.724 227.847 664.724 227.847C664.724 227.847 680.384 236.067 676.663 248.002" fill="white"/>
<path d="M659.332 261.197C659.332 261.197 646.379 250.505 642.598 244.332C638.818 238.16 639.912 223.358 641.524 221.295C643.136 219.233 656.089 214.304 659.332 213.06C662.575 211.817 684.701 210.603 689.556 208.51C694.411 206.417 699.803 212.62 692.8 217.974C685.796 223.327 664.724 227.847 664.724 227.847C664.724 227.847 680.384 236.067 676.663 248.002" stroke="#263238" stroke-linecap="round" stroke-linejoin="round"/>
<path d="M699.603 210.924C699.603 210.924 688.58 233.672 693.833 236.554C699.086 239.435 705.393 238.556 706.965 234.158C708.537 229.76 716.914 218.992 715.899 213.32C714.884 207.648 705.393 205.388 699.603 210.924Z" fill="white" stroke="#263238" stroke-linecap="round" stroke-linejoin="round"/>
<path d="M713.771 218.546C713.771 218.546 704.838 237.033 709.096 239.308C713.354 241.583 718.467 240.931 719.741 237.367C721.014 233.803 727.819 225.037 726.983 220.487C726.148 215.937 718.467 213.996 713.771 218.546Z" fill="white" stroke="#263238" stroke-linecap="round" stroke-linejoin="round"/>
<path d="M686.852 204.439C686.852 204.439 675.53 227.886 680.882 230.767C686.235 233.649 692.821 232.814 694.373 228.295C695.925 223.776 704.62 212.659 703.546 206.911C702.471 201.163 692.801 198.676 686.852 204.439Z" fill="white" stroke="#263238" stroke-linecap="round" stroke-linejoin="round"/>
<path d="M659.866 285.06L656.086 267.376L702.507 264.07L710.585 285.06H659.866Z" fill="#407BFF" stroke="#263238" stroke-linecap="round" stroke-linejoin="round"/>
<path d="M287.509 671.998L321.195 544.347L334.129 671.998H573.912C574.191 663.778 577.892 554.22 576.877 535.247C575.882 515.532 588.815 482.167 588.815 482.167C588.815 482.167 748.989 456.385 769.882 445.769C790.774 435.153 778.835 421.503 776.846 413.92C774.856 406.337 716.159 288.044 714.169 282.736C712.179 277.428 703.225 278.186 694.271 278.186C685.318 278.186 654.477 279.702 654.477 284.252C654.477 288.802 671.389 399.513 671.389 399.513H663.43L660.446 404.821L617.667 397.996C617.667 397.996 585.831 379.797 574.887 379.039L499.277 373.731H388.847C388.847 373.731 265.483 417.712 256.529 426.053C247.575 434.394 247.575 462.451 247.575 462.451L219.719 671.998H287.509Z" fill="#407BFF" stroke="#263238" stroke-linecap="round" stroke-linejoin="round"/>
<path d="M509.328 610.531L519.177 600.461" stroke="#263238" stroke-linecap="round" stroke-linejoin="round"/>
<path d="M452.898 668.315C469.433 649.752 487.341 633.07 504.731 615.25" stroke="#263238" stroke-linecap="round" stroke-linejoin="round"/>
<path d="M526.162 603.133C517.308 615.508 502.763 634.041 486.367 647.478" stroke="#263238" stroke-linecap="round" stroke-linejoin="round"/>
<path d="M535.094 589.844C535.094 589.844 533.263 592.877 530 597.624" stroke="#263238" stroke-linecap="round" stroke-linejoin="round"/>
<path d="M603.875 438.077L610.043 419.984" stroke="#263238" stroke-linecap="round" stroke-linejoin="round"/>
<path d="M588.812 482.163L601.706 444.445" stroke="#263238" stroke-linecap="round" stroke-linejoin="round"/>
<path d="M595.281 463.009L621.128 426.414" stroke="#263238" stroke-linecap="round" stroke-linejoin="round"/>
<path d="M696.977 424.57C698.011 425.784 698.927 426.936 699.722 428.028" stroke="#263238" stroke-linecap="round" stroke-linejoin="round"/>
<path d="M680.206 426.42C674.163 418.215 671.119 408.923 671.392 399.516C671.392 399.516 682.952 409.51 692.045 419.08" stroke="#263238" stroke-linecap="round" stroke-linejoin="round"/>
<path d="M294.733 458.521C292.167 454.351 290.117 451.227 290.117 451.227" stroke="#263238" stroke-linecap="round" stroke-linejoin="round"/>
<path d="M321.197 544.344C321.197 544.344 307.129 482.543 303.568 474.444C302.294 471.502 300.165 467.635 297.977 463.828" stroke="#263238" stroke-linecap="round" stroke-linejoin="round"/>
<path d="M298.31 489.133C295.427 484.66 292.246 480.301 288.779 476.075L271.07 456.633" stroke="#263238" stroke-linecap="round" stroke-linejoin="round"/>
<path d="M314.233 513.864C314.233 513.864 307.647 503.248 300.922 493.102" stroke="#263238" stroke-linecap="round" stroke-linejoin="round"/>
<path d="M419.034 414.178L440.245 437.927L410.398 616.884L449.537 646.215L479.383 611.834L454.173 435.91L475.403 411.645L444.224 392.43L419.034 414.178Z" fill="#263238" stroke="#263238" stroke-linecap="round" stroke-linejoin="round"/>
<path d="M438.926 404.567L400.444 437.431L380.547 380.302L395.808 361.602L408.403 360.586L486.68 361.602L512.546 379.801L495.295 435.414L452.177 402.55L438.926 404.567Z" fill="#407BFF" stroke="#263238" stroke-linecap="round" stroke-linejoin="round"/>
<path d="M397.797 340.867L400.443 370.698C400.443 370.698 438.925 409.114 444.217 409.114C449.51 409.114 486.679 368.166 486.679 368.166L487.335 342.384L397.797 340.867Z" fill="white" stroke="#263238" stroke-linecap="round" stroke-linejoin="round"/>
<path d="M379.238 299.919C379.238 299.919 371.936 282.736 362.644 293.853C353.352 304.969 373.925 322.168 377.905 324.185L381.884 326.217L379.238 299.919Z" fill="white" stroke="#263238" stroke-linecap="round" stroke-linejoin="round"/>
<path d="M508.573 299.919C508.573 299.919 515.855 282.736 525.147 293.853C534.439 304.969 513.865 322.168 509.886 324.185L505.906 326.217L508.573 299.919Z" fill="white" stroke="#263238" stroke-linecap="round" stroke-linejoin="round"/>
<path d="M377.906 297.901C377.906 297.901 379.896 332.783 386.86 340.366C393.824 347.949 417.701 366.906 435.609 369.939C453.517 372.972 460.481 369.939 474.409 363.115C488.337 356.29 507.24 342.641 509.229 334.299C511.219 325.958 511.219 291.077 511.219 291.077L507.24 254.679C507.24 254.679 505.25 233.446 471.424 224.347C437.599 215.247 410.737 209.181 399.794 224.347C388.85 239.513 374.922 256.195 374.922 256.195L377.906 297.901Z" fill="white" stroke="#263238" stroke-linecap="round" stroke-linejoin="round"/>
<path d="M434.609 324.105C441.504 325.377 448.67 325.54 455.652 324.585C462.633 323.629 469.277 321.575 475.16 318.555" stroke="#263238" stroke-linecap="round" stroke-linejoin="round"/>
<path d="M404.469 289.242L423.192 292.412" stroke="#263238" stroke-linecap="round" stroke-linejoin="round"/>
<path d="M471 293.2L492.827 288.453" stroke="#263238" stroke-linecap="round" stroke-linejoin="round"/>
<path d="M415.705 235.724C415.705 235.724 413.715 252.407 401.776 259.231L381.879 270.606L383.869 298.663L377.9 297.904L374.915 279.705C374.915 279.705 362.977 255.44 362.977 237.999C362.977 220.558 380.884 209.942 387.848 209.184C393.805 208.77 399.799 208.77 405.756 209.184C405.756 209.184 419.684 194.018 456.494 192.502C493.304 190.985 522.156 220.558 518.176 225.867L514.197 231.175C519.116 238.188 521.84 245.974 522.156 253.923C522.156 266.056 512.207 277.43 512.207 277.43V300.938L504.248 275.156C504.248 275.156 497.284 259.231 495.294 256.198C493.304 253.165 472.412 254.682 460.474 250.89C448.535 247.099 439.582 236.483 439.582 236.483C439.582 236.483 449.53 250.89 441.571 250.89C433.612 250.89 415.705 235.724 415.705 235.724Z" fill="#263238" stroke="#263238" stroke-linecap="round" stroke-linejoin="round"/>
<path d="M489.331 310.037C481.372 307.004 448.203 300.438 448.203 300.438C448.203 300.438 409.085 308.521 403.116 313.571C397.147 318.621 402.439 343.903 409.085 353.518C415.731 363.133 423.013 371.201 443.567 371.717C464.121 372.233 485.352 363.118 488.675 354.018C491.997 344.919 497.29 313.071 489.331 310.037ZM476.736 346.436C471.423 353.518 459.485 353.002 458.828 348.968C458.172 344.934 458.152 340.369 451.526 340.369C444.9 340.369 446.89 342.386 447.547 347.952C448.203 353.518 438.931 357.552 428.982 353.002C419.034 348.453 414.378 329.753 414.378 323.687C414.378 317.62 448.88 309.021 448.88 309.021C448.88 309.021 478.049 310.037 482.029 316.104C486.008 322.17 482.029 339.353 476.736 346.436Z" fill="#263238" stroke="#263238" stroke-linecap="round" stroke-linejoin="round"/>
<path d="M419.352 286.265C421 286.265 422.336 284.003 422.336 281.214C422.336 278.425 421 276.164 419.352 276.164C417.703 276.164 416.367 278.425 416.367 281.214C416.367 284.003 417.703 286.265 419.352 286.265Z" fill="#263238"/>
<path d="M472.414 286.265C474.063 286.265 475.399 284.003 475.399 281.214C475.399 278.425 474.063 276.164 472.414 276.164C470.766 276.164 469.43 278.425 469.43 281.214C469.43 284.003 470.766 286.265 472.414 286.265Z" fill="#263238"/>
<path d="M405.758 267.068C405.758 267.068 413.06 256.452 434.947 259.986" stroke="#263238" stroke-width="4" stroke-linecap="round" stroke-linejoin="round"/>
<path d="M462.125 258.97C462.125 258.97 478.719 253.42 492.648 265.552" stroke="#263238" stroke-width="4" stroke-linecap="round" stroke-linejoin="round"/>
<path d="M456.838 263.523L458.151 303.47L432.961 298.405" fill="white"/>
<path d="M456.838 263.523L458.151 303.47L432.961 298.405" stroke="#263238" stroke-linecap="round" stroke-linejoin="round"/>
</svg>
