<svg width="28" height="28" viewBox="0 0 28 28" fill="none" xmlns="http://www.w3.org/2000/svg">
<path d="M1.95799 19.7969V19.8006C0.865626 19.82 0.0178385 20.4707 0.00281681 21.2624H0L0 26.5963H0.00516356C0.031921 27.3806 0.874546 27.9789 1.95846 27.9966V28H25.9932V27.9973C27.0729 27.9827 27.9127 27.3724 27.9545 26.5963H28V21.2624C27.9995 20.4462 27.1198 19.7969 25.9937 19.7969H1.95799ZM25.6585 23.8988C25.6634 24.1793 25.5913 24.4578 25.4464 24.718C25.3015 24.9782 25.0867 25.215 24.8145 25.4146C24.5423 25.6142 24.218 25.7727 23.8605 25.8809C23.5031 25.9891 23.1195 26.0448 22.7321 26.0447C22.3447 26.0447 21.9611 25.989 21.6036 25.8808C21.2462 25.7726 20.922 25.614 20.6498 25.4144C20.3776 25.2147 20.1629 24.9779 20.018 24.7177C19.8732 24.4575 19.8012 24.179 19.8061 23.8985C19.8159 23.3411 20.1286 22.8089 20.6763 22.4173C21.2241 22.0257 21.9628 21.8061 22.7325 21.8062C23.5023 21.8062 24.241 22.0259 24.7886 22.4176C25.3363 22.8092 25.6488 23.3414 25.6585 23.8988ZM15.1386 21.4926V26.3046H2.34104L2.34104 21.4926H15.1386ZM1.95799 9.89845V9.90219C0.865626 9.92157 0.0178385 10.5722 0.00281681 11.364H0L0 16.6979H0.00516356C0.031921 17.4822 0.874546 18.0805 1.95846 18.0982V18.1015H25.9932V18.0988C27.0729 18.0842 27.9127 17.474 27.9545 16.6979H28V11.364C27.9995 10.5478 27.1198 9.89845 25.9937 9.89845H1.95799ZM25.6585 14.0003C25.6634 14.2809 25.5913 14.5593 25.4464 14.8195C25.3015 15.0798 25.0867 15.3165 24.8145 15.5162C24.5423 15.7158 24.218 15.8743 23.8605 15.9825C23.5031 16.0906 23.1195 16.1463 22.7321 16.1463C22.3447 16.1463 21.9611 16.0905 21.6036 15.9823C21.2462 15.8741 20.922 15.7156 20.6498 15.5159C20.3776 15.3163 20.1629 15.0795 20.018 14.8192C19.8732 14.559 19.8012 14.2805 19.8061 14C19.8159 13.4426 20.1285 12.9105 20.6762 12.5188C21.2239 12.1272 21.9626 11.9076 22.7323 11.9076C23.502 11.9076 24.2407 12.1272 24.7885 12.5188C25.3362 12.9105 25.6487 13.443 25.6585 14.0003ZM15.1386 11.5941L15.1386 16.4059H2.34104V11.5938L15.1386 11.5941ZM1.95799 0V0.00374031C0.865626 0.023119 0.0178385 0.67379 0.00281681 1.46554H0L0 6.79943H0.00516356C0.031921 7.5837 0.874546 8.18202 1.95846 8.1997V8.2031H25.9932V8.20038C27.0729 8.18576 27.9127 7.57554 27.9545 6.79943H28V1.46554C27.9995 0.649313 27.1198 0 25.9937 0H1.95799ZM25.6585 4.10155C25.6634 4.38209 25.5913 4.66055 25.4464 4.92075C25.3015 5.18096 25.0867 5.41775 24.8145 5.61738C24.5423 5.817 24.218 5.9755 23.8605 6.08366C23.5031 6.19183 23.1195 6.24752 22.7321 6.24749C22.3447 6.24747 21.9611 6.19174 21.6036 6.08353C21.2462 5.97532 20.922 5.81679 20.6498 5.61713C20.3776 5.41747 20.1629 5.18067 20.018 4.92044C19.8732 4.66021 19.8012 4.38175 19.8061 4.10121C19.8159 3.54384 20.1286 3.0117 20.6763 2.62009C21.2241 2.22847 21.9628 2.0089 22.7325 2.00895C23.5023 2.00899 24.241 2.22864 24.7886 2.62033C25.3363 3.01201 25.6488 3.54418 25.6585 4.10155ZM15.1386 1.69535V6.50741H2.34104L2.34104 1.69535H15.1386Z" fill="black"/>
</svg>
