<svg width="147" height="50" viewBox="0 0 147 50" fill="none" xmlns="http://www.w3.org/2000/svg">
<g clip-path="url(#clip0_6109_19346)">
<path d="M25 0C11.645 0 0 11.025 0 23.75C0 36.26 11.3825 46.105 25 46.105C27.9126 46.107 30.807 45.6462 33.575 44.74C34.735 45.865 35.1325 46.2475 37.595 48.6225C39.37 49.9625 41.04 50.4175 42.5325 49.5725C44.0375 48.7225 44.49 47.0675 44.1825 44.8875L43.1825 39.09C47.525 35.005 50 29.605 50 23.75C50 11.025 38.3575 0 25 0ZM25 3.5C36.465 3.5 46.5 13 46.5 23.75C46.5 28.8625 44.22 33.57 40.2 37.075L40.15 37.1175L39.4075 37.7625L39.575 38.7375L39.92 40.7475L40.0125 41.2825L40.725 45.4275C40.7658 45.7067 40.7909 45.988 40.8 46.27V46.5075C40.8 46.5192 40.8017 46.5258 40.805 46.5275C40.7875 46.5025 40.4475 46.395 39.865 45.97L34.44 40.705L33.405 41.095C30.7163 42.0976 27.8696 42.6099 25 42.6075C13.21 42.6075 3.5 34.2075 3.5 23.75C3.5 13.0025 13.535 3.5 25 3.5ZM36.9325 19.5325C36.4289 19.5141 35.9267 19.5974 35.4559 19.7775C34.9852 19.9575 34.5556 20.2306 34.1928 20.5804C33.83 20.9302 33.5414 21.3495 33.3443 21.8134C33.1472 22.2772 33.0456 22.776 33.0456 23.28C33.0456 23.784 33.1472 24.2828 33.3443 24.7466C33.5414 25.2105 33.83 25.6298 34.1928 25.9796C34.5556 26.3294 34.9852 26.6025 35.4559 26.7825C35.9267 26.9626 36.4289 27.0459 36.9325 27.0275C37.9027 26.9921 38.8214 26.5817 39.4952 25.8828C40.1691 25.1839 40.5456 24.2509 40.5456 23.28C40.5456 22.3091 40.1691 21.3761 39.4952 20.6772C38.8214 19.9783 37.9027 19.5679 36.9325 19.5325ZM24.4375 19.5325C23.9339 19.5141 23.4317 19.5974 22.9609 19.7775C22.4902 19.9575 22.0606 20.2306 21.6978 20.5804C21.335 20.9302 21.0464 21.3495 20.8493 21.8134C20.6522 22.2772 20.5506 22.776 20.5506 23.28C20.5506 23.784 20.6522 24.2828 20.8493 24.7466C21.0464 25.2105 21.335 25.6298 21.6978 25.9796C22.0606 26.3294 22.4902 26.6025 22.9609 26.7825C23.4317 26.9626 23.9339 27.0459 24.4375 27.0275C25.4077 26.9921 26.3264 26.5817 27.0002 25.8828C27.6741 25.1839 28.0506 24.2509 28.0506 23.28C28.0506 22.3091 27.6741 21.3761 27.0002 20.6772C26.3264 19.9783 25.4077 19.5679 24.4375 19.5325ZM11.945 19.5325C11.4414 19.5141 10.9392 19.5974 10.4684 19.7775C9.99772 19.9575 9.56811 20.2306 9.20529 20.5804C8.84248 20.9302 8.5539 21.3495 8.35679 21.8134C8.15968 22.2772 8.05809 22.776 8.05809 23.28C8.05809 23.784 8.15968 24.2828 8.35679 24.7466C8.5539 25.2105 8.84248 25.6298 9.20529 25.9796C9.56811 26.3294 9.99772 26.6025 10.4684 26.7825C10.9392 26.9626 11.4414 27.0459 11.945 27.0275C12.9152 26.9921 13.8339 26.5817 14.5077 25.8828C15.1816 25.1839 15.5581 24.2509 15.5581 23.28C15.5581 22.3091 15.1816 21.3761 14.5077 20.6772C13.8339 19.9783 12.9152 19.5679 11.945 19.5325Z" fill="black"/>
</g>
<path d="M59.1224 31V21.288H55.3944V19.48H64.7784V21.288H61.0504V31H59.1224ZM68.7043 31.24C67.8296 31.24 67.0616 31.0507 66.4003 30.672C65.7389 30.2933 65.2216 29.768 64.8483 29.096C64.4803 28.424 64.2963 27.6507 64.2963 26.776C64.2963 25.832 64.4776 25.0133 64.8403 24.32C65.2029 23.6213 65.7069 23.08 66.3523 22.696C66.9976 22.312 67.7443 22.12 68.5923 22.12C69.4883 22.12 70.2483 22.3307 70.8723 22.752C71.5016 23.168 71.9683 23.7573 72.2723 24.52C72.5763 25.2827 72.6909 26.1813 72.6163 27.216H70.7043V26.512C70.6989 25.5733 70.5336 24.888 70.2083 24.456C69.8829 24.024 69.3709 23.808 68.6723 23.808C67.8829 23.808 67.2963 24.0533 66.9123 24.544C66.5283 25.0293 66.3363 25.7413 66.3363 26.68C66.3363 27.5547 66.5283 28.232 66.9123 28.712C67.2963 29.192 67.8563 29.432 68.5923 29.432C69.0669 29.432 69.4749 29.328 69.8163 29.12C70.1629 28.9067 70.4296 28.6 70.6163 28.2L72.5203 28.776C72.1896 29.5547 71.6776 30.16 70.9843 30.592C70.2963 31.024 69.5363 31.24 68.7043 31.24ZM65.7283 27.216V25.76H71.6723V27.216H65.7283ZM74.5613 31V19.24H76.4893V31H74.5613ZM79.0456 31V19.24H80.9736V31H79.0456ZM89.8131 31.248C89.1731 31.248 88.6451 31.1413 88.2291 30.928C87.8131 30.7147 87.4825 30.4427 87.2371 30.112C86.9918 29.7813 86.8105 29.4293 86.6931 29.056C86.5758 28.6827 86.4985 28.3307 86.4611 28C86.4291 27.664 86.4131 27.392 86.4131 27.184V22.36H88.3651V26.52C88.3651 26.7867 88.3838 27.088 88.4211 27.424C88.4585 27.7547 88.5438 28.0747 88.6771 28.384C88.8158 28.688 89.0185 28.9387 89.2851 29.136C89.5571 29.3333 89.9225 29.432 90.3811 29.432C90.6265 29.432 90.8691 29.392 91.1091 29.312C91.3491 29.232 91.5651 29.096 91.7571 28.904C91.9545 28.7067 92.1118 28.4373 92.2291 28.096C92.3465 27.7547 92.4051 27.3227 92.4051 26.8L93.5491 27.288C93.5491 28.024 93.4051 28.6907 93.1171 29.288C92.8345 29.8853 92.4158 30.3627 91.8611 30.72C91.3065 31.072 90.6238 31.248 89.8131 31.248ZM92.6371 31V28.32H92.4051V22.36H94.3411V31H92.6371ZM99.9248 31.24C98.8581 31.24 97.9914 31 97.3248 30.52C96.6581 30.04 96.2528 29.3653 96.1088 28.496L98.0768 28.192C98.1781 28.6187 98.4021 28.9547 98.7488 29.2C99.0954 29.4453 99.5328 29.568 100.061 29.568C100.525 29.568 100.882 29.4773 101.133 29.296C101.389 29.1093 101.517 28.856 101.517 28.536C101.517 28.3387 101.469 28.1813 101.373 28.064C101.282 27.9413 101.079 27.824 100.765 27.712C100.45 27.6 99.9674 27.4587 99.3168 27.288C98.5914 27.096 98.0154 26.8907 97.5888 26.672C97.1621 26.448 96.8554 26.184 96.6688 25.88C96.4821 25.576 96.3888 25.208 96.3888 24.776C96.3888 24.2373 96.5301 23.768 96.8128 23.368C97.0954 22.968 97.4901 22.6613 97.9968 22.448C98.5034 22.2293 99.1008 22.12 99.7888 22.12C100.461 22.12 101.055 22.224 101.573 22.432C102.095 22.64 102.517 22.936 102.837 23.32C103.157 23.704 103.354 24.1547 103.429 24.672L101.461 25.024C101.413 24.656 101.245 24.3653 100.957 24.152C100.674 23.9387 100.295 23.8187 99.8208 23.792C99.3674 23.7653 99.0021 23.8347 98.7248 24C98.4474 24.16 98.3088 24.3867 98.3088 24.68C98.3088 24.8453 98.3648 24.9867 98.4768 25.104C98.5888 25.2213 98.8128 25.3387 99.1488 25.456C99.4901 25.5733 99.9968 25.7173 100.669 25.888C101.357 26.064 101.906 26.2667 102.317 26.496C102.733 26.72 103.031 26.9893 103.213 27.304C103.399 27.6187 103.493 28 103.493 28.448C103.493 29.3173 103.175 30 102.541 30.496C101.911 30.992 101.039 31.24 99.9248 31.24ZM108.448 31V19.48H110.184L114.168 27.64L118.152 19.48H119.888V31H118.088V23.616L114.552 31H113.784L110.256 23.616V31H108.448ZM125.952 31.24C125.088 31.24 124.333 31.0453 123.688 30.656C123.042 30.2667 122.541 29.7307 122.184 29.048C121.832 28.36 121.656 27.5707 121.656 26.68C121.656 25.7733 121.837 24.9787 122.2 24.296C122.562 23.6133 123.066 23.08 123.712 22.696C124.357 22.312 125.104 22.12 125.952 22.12C126.821 22.12 127.578 22.3147 128.224 22.704C128.869 23.0933 129.37 23.632 129.728 24.32C130.085 25.0027 130.264 25.7893 130.264 26.68C130.264 27.576 130.082 28.368 129.72 29.056C129.362 29.7387 128.861 30.2747 128.216 30.664C127.57 31.048 126.816 31.24 125.952 31.24ZM125.952 29.432C126.72 29.432 127.29 29.176 127.664 28.664C128.037 28.152 128.224 27.4907 128.224 26.68C128.224 25.8427 128.034 25.176 127.656 24.68C127.277 24.1787 126.709 23.928 125.952 23.928C125.434 23.928 125.008 24.0453 124.672 24.28C124.341 24.5093 124.096 24.832 123.936 25.248C123.776 25.6587 123.696 26.136 123.696 26.68C123.696 27.5173 123.885 28.1867 124.264 28.688C124.648 29.184 125.21 29.432 125.952 29.432ZM132.026 31V22.36H133.73V24.464L133.522 24.192C133.629 23.904 133.77 23.6427 133.946 23.408C134.128 23.168 134.344 22.9707 134.594 22.816C134.808 22.672 135.042 22.56 135.298 22.48C135.56 22.3947 135.826 22.344 136.098 22.328C136.37 22.3067 136.634 22.3173 136.89 22.36V24.16C136.634 24.0853 136.338 24.0613 136.002 24.088C135.672 24.1147 135.373 24.208 135.106 24.368C134.84 24.512 134.621 24.696 134.45 24.92C134.285 25.144 134.162 25.4 134.082 25.688C134.002 25.9707 133.962 26.2773 133.962 26.608V31H132.026ZM142.189 31.24C141.314 31.24 140.546 31.0507 139.885 30.672C139.223 30.2933 138.706 29.768 138.333 29.096C137.965 28.424 137.781 27.6507 137.781 26.776C137.781 25.832 137.962 25.0133 138.325 24.32C138.687 23.6213 139.191 23.08 139.837 22.696C140.482 22.312 141.229 22.12 142.077 22.12C142.973 22.12 143.733 22.3307 144.357 22.752C144.986 23.168 145.453 23.7573 145.757 24.52C146.061 25.2827 146.175 26.1813 146.101 27.216H144.189V26.512C144.183 25.5733 144.018 24.888 143.693 24.456C143.367 24.024 142.855 23.808 142.157 23.808C141.367 23.808 140.781 24.0533 140.397 24.544C140.013 25.0293 139.821 25.7413 139.821 26.68C139.821 27.5547 140.013 28.232 140.397 28.712C140.781 29.192 141.341 29.432 142.077 29.432C142.551 29.432 142.959 29.328 143.301 29.12C143.647 28.9067 143.914 28.6 144.101 28.2L146.005 28.776C145.674 29.5547 145.162 30.16 144.469 30.592C143.781 31.024 143.021 31.24 142.189 31.24ZM139.213 27.216V25.76H145.157V27.216H139.213Z" fill="black"/>
<defs>
<clipPath id="clip0_6109_19346">
<rect width="50" height="50" fill="white" transform="matrix(-1 0 0 1 50 0)"/>
</clipPath>
</defs>
</svg>
